<?xml version="1.0" encoding="utf-8" standalone="no"?>
<!DOCTYPE svg PUBLIC "-//W3C//DTD SVG 1.1//EN"
  "http://www.w3.org/Graphics/SVG/1.1/DTD/svg11.dtd">
<svg xmlns:xlink="http://www.w3.org/1999/xlink" width="502.49875pt" height="496.8pt" viewBox="0 0 502.49875 496.8" xmlns="http://www.w3.org/2000/svg" version="1.1">
 <metadata>
  <rdf:RDF xmlns:dc="http://purl.org/dc/elements/1.1/" xmlns:cc="http://creativecommons.org/ns#" xmlns:rdf="http://www.w3.org/1999/02/22-rdf-syntax-ns#">
   <cc:Work>
    <dc:type rdf:resource="http://purl.org/dc/dcmitype/StillImage"/>
    <dc:date>2026-01-19T16:18:01.403062</dc:date>
    <dc:format>image/svg+xml</dc:format>
    <dc:creator>
     <cc:Agent>
      <dc:title>Matplotlib v3.10.0, https://matplotlib.org/</dc:title>
     </cc:Agent>
    </dc:creator>
   </cc:Work>
  </rdf:RDF>
 </metadata>
 <defs>
  <style type="text/css">*{stroke-linejoin: round; stroke-linecap: butt}</style>
 </defs>
 <g id="figure_1">
  <g id="patch_1">
   <path d="M 0 496.8 
L 502.49875 496.8 
L 502.49875 0 
L 0 0 
z
" style="fill: #ffffff"/>
  </g>
  <g id="axes_1">
   <g id="patch_2">
    <path d="M 29.78275 422.064 
L 116.61475 422.064 
Q 126.26275 422.064 126.26275 412.416 
L 126.26275 84.384 
Q 126.26275 74.736 116.61475 74.736 
L 29.78275 74.736 
Q 20.13475 74.736 20.13475 84.384 
L 20.13475 412.416 
Q 20.13475 422.064 29.78275 422.064 
z
" clip-path="url(#pd22a6b7718)" style="fill: #e74c3c; opacity: 0.85; stroke: #333333; stroke-width: 2; stroke-linejoin: miter"/>
   </g>
   <g id="line2d_1">
    <path d="M 34.60675 151.92 
L 111.79075 151.92 
" clip-path="url(#pd22a6b7718)" style="fill: none; stroke: #ffffff; stroke-opacity: 0.5; stroke-width: 2; stroke-linecap: square"/>
   </g>
   <g id="patch_3">
    <path d="M 150.38275 422.064 
L 237.21475 422.064 
Q 246.86275 422.064 246.86275 412.416 
L 246.86275 84.384 
Q 246.86275 74.736 237.21475 74.736 
L 150.38275 74.736 
Q 140.73475 74.736 140.73475 84.384 
L 140.73475 412.416 
Q 140.73475 422.064 150.38275 422.064 
z
" clip-path="url(#pd22a6b7718)" style="fill: #27ae60; opacity: 0.85; stroke: #333333; stroke-width: 2; stroke-linejoin: miter"/>
   </g>
   <g id="line2d_2">
    <path d="M 155.20675 151.92 
L 232.39075 151.92 
" clip-path="url(#pd22a6b7718)" style="fill: none; stroke: #ffffff; stroke-opacity: 0.5; stroke-width: 2; stroke-linecap: square"/>
   </g>
   <g id="patch_4">
    <path d="M 270.98275 422.064 
L 357.81475 422.064 
Q 367.46275 422.064 367.46275 412.416 
L 367.46275 84.384 
Q 367.46275 74.736 357.81475 74.736 
L 270.98275 74.736 
Q 261.33475 74.736 261.33475 84.384 
L 261.33475 412.416 
Q 261.33475 422.064 270.98275 422.064 
z
" clip-path="url(#pd22a6b7718)" style="fill: #3498db; opacity: 0.85; stroke: #333333; stroke-width: 2; stroke-linejoin: miter"/>
   </g>
   <g id="line2d_3">
    <path d="M 275.80675 151.92 
L 352.99075 151.92 
" clip-path="url(#pd22a6b7718)" style="fill: none; stroke: #ffffff; stroke-opacity: 0.5; stroke-width: 2; stroke-linecap: square"/>
   </g>
   <g id="patch_5">
    <path d="M 391.58275 422.064 
L 478.41475 422.064 
Q 488.06275 422.064 488.06275 412.416 
L 488.06275 84.384 
Q 488.06275 74.736 478.41475 74.736 
L 391.58275 74.736 
Q 381.93475 74.736 381.93475 84.384 
L 381.93475 412.416 
Q 381.93475 422.064 391.58275 422.064 
z
" clip-path="url(#pd22a6b7718)" style="fill: #9b59b6; opacity: 0.85; stroke: #333333; stroke-width: 2; stroke-linejoin: miter"/>
   </g>
   <g id="line2d_4">
    <path d="M 396.40675 151.92 
L 473.59075 151.92 
" clip-path="url(#pd22a6b7718)" style="fill: none; stroke: #ffffff; stroke-opacity: 0.5; stroke-width: 2; stroke-linecap: square"/>
   </g>
   <g id="text_1">
    <!-- Manufacturing -->
    <g style="fill: #ffffff" transform="translate(7.2 130.3095) scale(0.16 -0.16)">
     <defs>
      <path id="DejaVuSans-Bold-4d" d="M 588 4666 
L 2119 4666 
L 3181 2169 
L 4250 4666 
L 5778 4666 
L 5778 0 
L 4641 0 
L 4641 3413 
L 3566 897 
L 2803 897 
L 1728 3413 
L 1728 0 
L 588 0 
L 588 4666 
z
" transform="scale(0.015625)"/>
      <path id="DejaVuSans-Bold-61" d="M 2106 1575 
Q 1756 1575 1579 1456 
Q 1403 1338 1403 1106 
Q 1403 894 1545 773 
Q 1688 653 1941 653 
Q 2256 653 2472 879 
Q 2688 1106 2688 1447 
L 2688 1575 
L 2106 1575 
z
M 3816 1997 
L 3816 0 
L 2688 0 
L 2688 519 
Q 2463 200 2181 54 
Q 1900 -91 1497 -91 
Q 953 -91 614 226 
Q 275 544 275 1050 
Q 275 1666 698 1953 
Q 1122 2241 2028 2241 
L 2688 2241 
L 2688 2328 
Q 2688 2594 2478 2717 
Q 2269 2841 1825 2841 
Q 1466 2841 1156 2769 
Q 847 2697 581 2553 
L 581 3406 
Q 941 3494 1303 3539 
Q 1666 3584 2028 3584 
Q 2975 3584 3395 3211 
Q 3816 2838 3816 1997 
z
" transform="scale(0.015625)"/>
      <path id="DejaVuSans-Bold-6e" d="M 4056 2131 
L 4056 0 
L 2931 0 
L 2931 347 
L 2931 1631 
Q 2931 2084 2911 2256 
Q 2891 2428 2841 2509 
Q 2775 2619 2662 2680 
Q 2550 2741 2406 2741 
Q 2056 2741 1856 2470 
Q 1656 2200 1656 1722 
L 1656 0 
L 538 0 
L 538 3500 
L 1656 3500 
L 1656 2988 
Q 1909 3294 2193 3439 
Q 2478 3584 2822 3584 
Q 3428 3584 3742 3212 
Q 4056 2841 4056 2131 
z
" transform="scale(0.015625)"/>
      <path id="DejaVuSans-Bold-75" d="M 500 1363 
L 500 3500 
L 1625 3500 
L 1625 3150 
Q 1625 2866 1622 2436 
Q 1619 2006 1619 1863 
Q 1619 1441 1641 1255 
Q 1663 1069 1716 984 
Q 1784 875 1895 815 
Q 2006 756 2150 756 
Q 2500 756 2700 1025 
Q 2900 1294 2900 1772 
L 2900 3500 
L 4019 3500 
L 4019 0 
L 2900 0 
L 2900 506 
Q 2647 200 2364 54 
Q 2081 -91 1741 -91 
Q 1134 -91 817 281 
Q 500 653 500 1363 
z
" transform="scale(0.015625)"/>
      <path id="DejaVuSans-Bold-66" d="M 2841 4863 
L 2841 4128 
L 2222 4128 
Q 1984 4128 1890 4042 
Q 1797 3956 1797 3744 
L 1797 3500 
L 2753 3500 
L 2753 2700 
L 1797 2700 
L 1797 0 
L 678 0 
L 678 2700 
L 122 2700 
L 122 3500 
L 678 3500 
L 678 3744 
Q 678 4316 997 4589 
Q 1316 4863 1984 4863 
L 2841 4863 
z
" transform="scale(0.015625)"/>
      <path id="DejaVuSans-Bold-63" d="M 3366 3391 
L 3366 2478 
Q 3138 2634 2908 2709 
Q 2678 2784 2431 2784 
Q 1963 2784 1702 2511 
Q 1441 2238 1441 1747 
Q 1441 1256 1702 982 
Q 1963 709 2431 709 
Q 2694 709 2930 787 
Q 3166 866 3366 1019 
L 3366 103 
Q 3103 6 2833 -42 
Q 2563 -91 2291 -91 
Q 1344 -91 809 395 
Q 275 881 275 1747 
Q 275 2613 809 3098 
Q 1344 3584 2291 3584 
Q 2566 3584 2833 3536 
Q 3100 3488 3366 3391 
z
" transform="scale(0.015625)"/>
      <path id="DejaVuSans-Bold-74" d="M 1759 4494 
L 1759 3500 
L 2913 3500 
L 2913 2700 
L 1759 2700 
L 1759 1216 
Q 1759 972 1856 886 
Q 1953 800 2241 800 
L 2816 800 
L 2816 0 
L 1856 0 
Q 1194 0 917 276 
Q 641 553 641 1216 
L 641 2700 
L 84 2700 
L 84 3500 
L 641 3500 
L 641 4494 
L 1759 4494 
z
" transform="scale(0.015625)"/>
      <path id="DejaVuSans-Bold-72" d="M 3138 2547 
Q 2991 2616 2845 2648 
Q 2700 2681 2553 2681 
Q 2122 2681 1889 2404 
Q 1656 2128 1656 1613 
L 1656 0 
L 538 0 
L 538 3500 
L 1656 3500 
L 1656 2925 
Q 1872 3269 2151 3426 
Q 2431 3584 2822 3584 
Q 2878 3584 2943 3579 
Q 3009 3575 3134 3559 
L 3138 2547 
z
" transform="scale(0.015625)"/>
      <path id="DejaVuSans-Bold-69" d="M 538 3500 
L 1656 3500 
L 1656 0 
L 538 0 
L 538 3500 
z
M 538 4863 
L 1656 4863 
L 1656 3950 
L 538 3950 
L 538 4863 
z
" transform="scale(0.015625)"/>
      <path id="DejaVuSans-Bold-67" d="M 2919 594 
Q 2688 288 2409 144 
Q 2131 0 1766 0 
Q 1125 0 706 504 
Q 288 1009 288 1791 
Q 288 2575 706 3076 
Q 1125 3578 1766 3578 
Q 2131 3578 2409 3434 
Q 2688 3291 2919 2981 
L 2919 3500 
L 4044 3500 
L 4044 353 
Q 4044 -491 3511 -936 
Q 2978 -1381 1966 -1381 
Q 1638 -1381 1331 -1331 
Q 1025 -1281 716 -1178 
L 716 -306 
Q 1009 -475 1290 -558 
Q 1572 -641 1856 -641 
Q 2406 -641 2662 -400 
Q 2919 -159 2919 353 
L 2919 594 
z
M 2181 2772 
Q 1834 2772 1640 2515 
Q 1447 2259 1447 1791 
Q 1447 1309 1634 1061 
Q 1822 813 2181 813 
Q 2531 813 2725 1069 
Q 2919 1325 2919 1791 
Q 2919 2259 2725 2515 
Q 2531 2772 2181 2772 
z
" transform="scale(0.015625)"/>
     </defs>
     <use xlink:href="#DejaVuSans-Bold-4d"/>
     <use xlink:href="#DejaVuSans-Bold-61" transform="translate(99.511719 0)"/>
     <use xlink:href="#DejaVuSans-Bold-6e" transform="translate(166.992188 0)"/>
     <use xlink:href="#DejaVuSans-Bold-75" transform="translate(238.183594 0)"/>
     <use xlink:href="#DejaVuSans-Bold-66" transform="translate(309.375 0)"/>
     <use xlink:href="#DejaVuSans-Bold-61" transform="translate(352.880859 0)"/>
     <use xlink:href="#DejaVuSans-Bold-63" transform="translate(420.361328 0)"/>
     <use xlink:href="#DejaVuSans-Bold-74" transform="translate(479.638672 0)"/>
     <use xlink:href="#DejaVuSans-Bold-75" transform="translate(527.441406 0)"/>
     <use xlink:href="#DejaVuSans-Bold-72" transform="translate(598.632812 0)"/>
     <use xlink:href="#DejaVuSans-Bold-69" transform="translate(647.949219 0)"/>
     <use xlink:href="#DejaVuSans-Bold-6e" transform="translate(682.226562 0)"/>
     <use xlink:href="#DejaVuSans-Bold-67" transform="translate(753.417969 0)"/>
    </g>
   </g>
   <g id="text_2">
    <!-- Welding -->
    <g style="fill: #ffffff; opacity: 0.95" transform="translate(49.1725 203.47125) scale(0.12 -0.12)">
     <defs>
      <path id="DejaVuSans-57" d="M 213 4666 
L 850 4666 
L 1831 722 
L 2809 4666 
L 3519 4666 
L 4500 722 
L 5478 4666 
L 6119 4666 
L 4947 0 
L 4153 0 
L 3169 4050 
L 2175 0 
L 1381 0 
L 213 4666 
z
" transform="scale(0.015625)"/>
      <path id="DejaVuSans-65" d="M 3597 1894 
L 3597 1613 
L 953 1613 
Q 991 1019 1311 708 
Q 1631 397 2203 397 
Q 2534 397 2845 478 
Q 3156 559 3463 722 
L 3463 178 
Q 3153 47 2828 -22 
Q 2503 -91 2169 -91 
Q 1331 -91 842 396 
Q 353 884 353 1716 
Q 353 2575 817 3079 
Q 1281 3584 2069 3584 
Q 2775 3584 3186 3129 
Q 3597 2675 3597 1894 
z
M 3022 2063 
Q 3016 2534 2758 2815 
Q 2500 3097 2075 3097 
Q 1594 3097 1305 2825 
Q 1016 2553 972 2059 
L 3022 2063 
z
" transform="scale(0.015625)"/>
      <path id="DejaVuSans-6c" d="M 603 4863 
L 1178 4863 
L 1178 0 
L 603 0 
L 603 4863 
z
" transform="scale(0.015625)"/>
      <path id="DejaVuSans-64" d="M 2906 2969 
L 2906 4863 
L 3481 4863 
L 3481 0 
L 2906 0 
L 2906 525 
Q 2725 213 2448 61 
Q 2172 -91 1784 -91 
Q 1150 -91 751 415 
Q 353 922 353 1747 
Q 353 2572 751 3078 
Q 1150 3584 1784 3584 
Q 2172 3584 2448 3432 
Q 2725 3281 2906 2969 
z
M 947 1747 
Q 947 1113 1208 752 
Q 1469 391 1925 391 
Q 2381 391 2643 752 
Q 2906 1113 2906 1747 
Q 2906 2381 2643 2742 
Q 2381 3103 1925 3103 
Q 1469 3103 1208 2742 
Q 947 2381 947 1747 
z
" transform="scale(0.015625)"/>
      <path id="DejaVuSans-69" d="M 603 3500 
L 1178 3500 
L 1178 0 
L 603 0 
L 603 3500 
z
M 603 4863 
L 1178 4863 
L 1178 4134 
L 603 4134 
L 603 4863 
z
" transform="scale(0.015625)"/>
      <path id="DejaVuSans-6e" d="M 3513 2113 
L 3513 0 
L 2938 0 
L 2938 2094 
Q 2938 2591 2744 2837 
Q 2550 3084 2163 3084 
Q 1697 3084 1428 2787 
Q 1159 2491 1159 1978 
L 1159 0 
L 581 0 
L 581 3500 
L 1159 3500 
L 1159 2956 
Q 1366 3272 1645 3428 
Q 1925 3584 2291 3584 
Q 2894 3584 3203 3211 
Q 3513 2838 3513 2113 
z
" transform="scale(0.015625)"/>
      <path id="DejaVuSans-67" d="M 2906 1791 
Q 2906 2416 2648 2759 
Q 2391 3103 1925 3103 
Q 1463 3103 1205 2759 
Q 947 2416 947 1791 
Q 947 1169 1205 825 
Q 1463 481 1925 481 
Q 2391 481 2648 825 
Q 2906 1169 2906 1791 
z
M 3481 434 
Q 3481 -459 3084 -895 
Q 2688 -1331 1869 -1331 
Q 1566 -1331 1297 -1286 
Q 1028 -1241 775 -1147 
L 775 -588 
Q 1028 -725 1275 -790 
Q 1522 -856 1778 -856 
Q 2344 -856 2625 -561 
Q 2906 -266 2906 331 
L 2906 616 
Q 2728 306 2450 153 
Q 2172 0 1784 0 
Q 1141 0 747 490 
Q 353 981 353 1791 
Q 353 2603 747 3093 
Q 1141 3584 1784 3584 
Q 2172 3584 2450 3431 
Q 2728 3278 2906 2969 
L 2906 3500 
L 3481 3500 
L 3481 434 
z
" transform="scale(0.015625)"/>
     </defs>
     <use xlink:href="#DejaVuSans-57"/>
     <use xlink:href="#DejaVuSans-65" transform="translate(93.001953 0)"/>
     <use xlink:href="#DejaVuSans-6c" transform="translate(154.525391 0)"/>
     <use xlink:href="#DejaVuSans-64" transform="translate(182.308594 0)"/>
     <use xlink:href="#DejaVuSans-69" transform="translate(245.785156 0)"/>
     <use xlink:href="#DejaVuSans-6e" transform="translate(273.568359 0)"/>
     <use xlink:href="#DejaVuSans-67" transform="translate(336.947266 0)"/>
    </g>
   </g>
   <g id="text_3">
    <!-- Assembly -->
    <g style="fill: #ffffff; opacity: 0.95" transform="translate(44.279688 261.35925) scale(0.12 -0.12)">
     <defs>
      <path id="DejaVuSans-41" d="M 2188 4044 
L 1331 1722 
L 3047 1722 
L 2188 4044 
z
M 1831 4666 
L 2547 4666 
L 4325 0 
L 3669 0 
L 3244 1197 
L 1141 1197 
L 716 0 
L 50 0 
L 1831 4666 
z
" transform="scale(0.015625)"/>
      <path id="DejaVuSans-73" d="M 2834 3397 
L 2834 2853 
Q 2591 2978 2328 3040 
Q 2066 3103 1784 3103 
Q 1356 3103 1142 2972 
Q 928 2841 928 2578 
Q 928 2378 1081 2264 
Q 1234 2150 1697 2047 
L 1894 2003 
Q 2506 1872 2764 1633 
Q 3022 1394 3022 966 
Q 3022 478 2636 193 
Q 2250 -91 1575 -91 
Q 1294 -91 989 -36 
Q 684 19 347 128 
L 347 722 
Q 666 556 975 473 
Q 1284 391 1588 391 
Q 1994 391 2212 530 
Q 2431 669 2431 922 
Q 2431 1156 2273 1281 
Q 2116 1406 1581 1522 
L 1381 1569 
Q 847 1681 609 1914 
Q 372 2147 372 2553 
Q 372 3047 722 3315 
Q 1072 3584 1716 3584 
Q 2034 3584 2315 3537 
Q 2597 3491 2834 3397 
z
" transform="scale(0.015625)"/>
      <path id="DejaVuSans-6d" d="M 3328 2828 
Q 3544 3216 3844 3400 
Q 4144 3584 4550 3584 
Q 5097 3584 5394 3201 
Q 5691 2819 5691 2113 
L 5691 0 
L 5113 0 
L 5113 2094 
Q 5113 2597 4934 2840 
Q 4756 3084 4391 3084 
Q 3944 3084 3684 2787 
Q 3425 2491 3425 1978 
L 3425 0 
L 2847 0 
L 2847 2094 
Q 2847 2600 2669 2842 
Q 2491 3084 2119 3084 
Q 1678 3084 1418 2786 
Q 1159 2488 1159 1978 
L 1159 0 
L 581 0 
L 581 3500 
L 1159 3500 
L 1159 2956 
Q 1356 3278 1631 3431 
Q 1906 3584 2284 3584 
Q 2666 3584 2933 3390 
Q 3200 3197 3328 2828 
z
" transform="scale(0.015625)"/>
      <path id="DejaVuSans-62" d="M 3116 1747 
Q 3116 2381 2855 2742 
Q 2594 3103 2138 3103 
Q 1681 3103 1420 2742 
Q 1159 2381 1159 1747 
Q 1159 1113 1420 752 
Q 1681 391 2138 391 
Q 2594 391 2855 752 
Q 3116 1113 3116 1747 
z
M 1159 2969 
Q 1341 3281 1617 3432 
Q 1894 3584 2278 3584 
Q 2916 3584 3314 3078 
Q 3713 2572 3713 1747 
Q 3713 922 3314 415 
Q 2916 -91 2278 -91 
Q 1894 -91 1617 61 
Q 1341 213 1159 525 
L 1159 0 
L 581 0 
L 581 4863 
L 1159 4863 
L 1159 2969 
z
" transform="scale(0.015625)"/>
      <path id="DejaVuSans-79" d="M 2059 -325 
Q 1816 -950 1584 -1140 
Q 1353 -1331 966 -1331 
L 506 -1331 
L 506 -850 
L 844 -850 
Q 1081 -850 1212 -737 
Q 1344 -625 1503 -206 
L 1606 56 
L 191 3500 
L 800 3500 
L 1894 763 
L 2988 3500 
L 3597 3500 
L 2059 -325 
z
" transform="scale(0.015625)"/>
     </defs>
     <use xlink:href="#DejaVuSans-41"/>
     <use xlink:href="#DejaVuSans-73" transform="translate(68.408203 0)"/>
     <use xlink:href="#DejaVuSans-73" transform="translate(120.507812 0)"/>
     <use xlink:href="#DejaVuSans-65" transform="translate(172.607422 0)"/>
     <use xlink:href="#DejaVuSans-6d" transform="translate(234.130859 0)"/>
     <use xlink:href="#DejaVuSans-62" transform="translate(331.542969 0)"/>
     <use xlink:href="#DejaVuSans-6c" transform="translate(395.019531 0)"/>
     <use xlink:href="#DejaVuSans-79" transform="translate(422.802734 0)"/>
    </g>
   </g>
   <g id="text_4">
    <!-- Painting -->
    <g style="fill: #ffffff; opacity: 0.95" transform="translate(49.074063 319.24725) scale(0.12 -0.12)">
     <defs>
      <path id="DejaVuSans-50" d="M 1259 4147 
L 1259 2394 
L 2053 2394 
Q 2494 2394 2734 2622 
Q 2975 2850 2975 3272 
Q 2975 3691 2734 3919 
Q 2494 4147 2053 4147 
L 1259 4147 
z
M 628 4666 
L 2053 4666 
Q 2838 4666 3239 4311 
Q 3641 3956 3641 3272 
Q 3641 2581 3239 2228 
Q 2838 1875 2053 1875 
L 1259 1875 
L 1259 0 
L 628 0 
L 628 4666 
z
" transform="scale(0.015625)"/>
      <path id="DejaVuSans-61" d="M 2194 1759 
Q 1497 1759 1228 1600 
Q 959 1441 959 1056 
Q 959 750 1161 570 
Q 1363 391 1709 391 
Q 2188 391 2477 730 
Q 2766 1069 2766 1631 
L 2766 1759 
L 2194 1759 
z
M 3341 1997 
L 3341 0 
L 2766 0 
L 2766 531 
Q 2569 213 2275 61 
Q 1981 -91 1556 -91 
Q 1019 -91 701 211 
Q 384 513 384 1019 
Q 384 1609 779 1909 
Q 1175 2209 1959 2209 
L 2766 2209 
L 2766 2266 
Q 2766 2663 2505 2880 
Q 2244 3097 1772 3097 
Q 1472 3097 1187 3025 
Q 903 2953 641 2809 
L 641 3341 
Q 956 3463 1253 3523 
Q 1550 3584 1831 3584 
Q 2591 3584 2966 3190 
Q 3341 2797 3341 1997 
z
" transform="scale(0.015625)"/>
      <path id="DejaVuSans-74" d="M 1172 4494 
L 1172 3500 
L 2356 3500 
L 2356 3053 
L 1172 3053 
L 1172 1153 
Q 1172 725 1289 603 
Q 1406 481 1766 481 
L 2356 481 
L 2356 0 
L 1766 0 
Q 1100 0 847 248 
Q 594 497 594 1153 
L 594 3053 
L 172 3053 
L 172 3500 
L 594 3500 
L 594 4494 
L 1172 4494 
z
" transform="scale(0.015625)"/>
     </defs>
     <use xlink:href="#DejaVuSans-50"/>
     <use xlink:href="#DejaVuSans-61" transform="translate(55.802734 0)"/>
     <use xlink:href="#DejaVuSans-69" transform="translate(117.082031 0)"/>
     <use xlink:href="#DejaVuSans-6e" transform="translate(144.865234 0)"/>
     <use xlink:href="#DejaVuSans-74" transform="translate(208.244141 0)"/>
     <use xlink:href="#DejaVuSans-69" transform="translate(247.453125 0)"/>
     <use xlink:href="#DejaVuSans-6e" transform="translate(275.236328 0)"/>
     <use xlink:href="#DejaVuSans-67" transform="translate(338.615234 0)"/>
    </g>
   </g>
   <g id="text_5">
    <!-- Packaging -->
    <g style="fill: #ffffff; opacity: 0.95" transform="translate(42.74125 377.13525) scale(0.12 -0.12)">
     <defs>
      <path id="DejaVuSans-63" d="M 3122 3366 
L 3122 2828 
Q 2878 2963 2633 3030 
Q 2388 3097 2138 3097 
Q 1578 3097 1268 2742 
Q 959 2388 959 1747 
Q 959 1106 1268 751 
Q 1578 397 2138 397 
Q 2388 397 2633 464 
Q 2878 531 3122 666 
L 3122 134 
Q 2881 22 2623 -34 
Q 2366 -91 2075 -91 
Q 1284 -91 818 406 
Q 353 903 353 1747 
Q 353 2603 823 3093 
Q 1294 3584 2113 3584 
Q 2378 3584 2631 3529 
Q 2884 3475 3122 3366 
z
" transform="scale(0.015625)"/>
      <path id="DejaVuSans-6b" d="M 581 4863 
L 1159 4863 
L 1159 1991 
L 2875 3500 
L 3609 3500 
L 1753 1863 
L 3688 0 
L 2938 0 
L 1159 1709 
L 1159 0 
L 581 0 
L 581 4863 
z
" transform="scale(0.015625)"/>
     </defs>
     <use xlink:href="#DejaVuSans-50"/>
     <use xlink:href="#DejaVuSans-61" transform="translate(55.802734 0)"/>
     <use xlink:href="#DejaVuSans-63" transform="translate(117.082031 0)"/>
     <use xlink:href="#DejaVuSans-6b" transform="translate(172.0625 0)"/>
     <use xlink:href="#DejaVuSans-61" transform="translate(228.222656 0)"/>
     <use xlink:href="#DejaVuSans-67" transform="translate(289.501953 0)"/>
     <use xlink:href="#DejaVuSans-69" transform="translate(352.978516 0)"/>
     <use xlink:href="#DejaVuSans-6e" transform="translate(380.761719 0)"/>
     <use xlink:href="#DejaVuSans-67" transform="translate(444.140625 0)"/>
    </g>
   </g>
   <g id="text_6">
    <!-- Healthcare -->
    <g style="fill: #ffffff" transform="translate(144.505 130.3095) scale(0.16 -0.16)">
     <defs>
      <path id="DejaVuSans-Bold-48" d="M 588 4666 
L 1791 4666 
L 1791 2888 
L 3566 2888 
L 3566 4666 
L 4769 4666 
L 4769 0 
L 3566 0 
L 3566 1978 
L 1791 1978 
L 1791 0 
L 588 0 
L 588 4666 
z
" transform="scale(0.015625)"/>
      <path id="DejaVuSans-Bold-65" d="M 4031 1759 
L 4031 1441 
L 1416 1441 
Q 1456 1047 1700 850 
Q 1944 653 2381 653 
Q 2734 653 3104 758 
Q 3475 863 3866 1075 
L 3866 213 
Q 3469 63 3072 -14 
Q 2675 -91 2278 -91 
Q 1328 -91 801 392 
Q 275 875 275 1747 
Q 275 2603 792 3093 
Q 1309 3584 2216 3584 
Q 3041 3584 3536 3087 
Q 4031 2591 4031 1759 
z
M 2881 2131 
Q 2881 2450 2695 2645 
Q 2509 2841 2209 2841 
Q 1884 2841 1681 2658 
Q 1478 2475 1428 2131 
L 2881 2131 
z
" transform="scale(0.015625)"/>
      <path id="DejaVuSans-Bold-6c" d="M 538 4863 
L 1656 4863 
L 1656 0 
L 538 0 
L 538 4863 
z
" transform="scale(0.015625)"/>
      <path id="DejaVuSans-Bold-68" d="M 4056 2131 
L 4056 0 
L 2931 0 
L 2931 347 
L 2931 1625 
Q 2931 2084 2911 2256 
Q 2891 2428 2841 2509 
Q 2775 2619 2662 2680 
Q 2550 2741 2406 2741 
Q 2056 2741 1856 2470 
Q 1656 2200 1656 1722 
L 1656 0 
L 538 0 
L 538 4863 
L 1656 4863 
L 1656 2988 
Q 1909 3294 2193 3439 
Q 2478 3584 2822 3584 
Q 3428 3584 3742 3212 
Q 4056 2841 4056 2131 
z
" transform="scale(0.015625)"/>
     </defs>
     <use xlink:href="#DejaVuSans-Bold-48"/>
     <use xlink:href="#DejaVuSans-Bold-65" transform="translate(83.691406 0)"/>
     <use xlink:href="#DejaVuSans-Bold-61" transform="translate(151.513672 0)"/>
     <use xlink:href="#DejaVuSans-Bold-6c" transform="translate(218.994141 0)"/>
     <use xlink:href="#DejaVuSans-Bold-74" transform="translate(253.271484 0)"/>
     <use xlink:href="#DejaVuSans-Bold-68" transform="translate(301.074219 0)"/>
     <use xlink:href="#DejaVuSans-Bold-63" transform="translate(372.265625 0)"/>
     <use xlink:href="#DejaVuSans-Bold-61" transform="translate(431.542969 0)"/>
     <use xlink:href="#DejaVuSans-Bold-72" transform="translate(499.023438 0)"/>
     <use xlink:href="#DejaVuSans-Bold-65" transform="translate(548.339844 0)"/>
    </g>
   </g>
   <g id="text_7">
    <!-- Surgery -->
    <g style="fill: #ffffff; opacity: 0.95" transform="translate(170.306875 203.47125) scale(0.12 -0.12)">
     <defs>
      <path id="DejaVuSans-53" d="M 3425 4513 
L 3425 3897 
Q 3066 4069 2747 4153 
Q 2428 4238 2131 4238 
Q 1616 4238 1336 4038 
Q 1056 3838 1056 3469 
Q 1056 3159 1242 3001 
Q 1428 2844 1947 2747 
L 2328 2669 
Q 3034 2534 3370 2195 
Q 3706 1856 3706 1288 
Q 3706 609 3251 259 
Q 2797 -91 1919 -91 
Q 1588 -91 1214 -16 
Q 841 59 441 206 
L 441 856 
Q 825 641 1194 531 
Q 1563 422 1919 422 
Q 2459 422 2753 634 
Q 3047 847 3047 1241 
Q 3047 1584 2836 1778 
Q 2625 1972 2144 2069 
L 1759 2144 
Q 1053 2284 737 2584 
Q 422 2884 422 3419 
Q 422 4038 858 4394 
Q 1294 4750 2059 4750 
Q 2388 4750 2728 4690 
Q 3069 4631 3425 4513 
z
" transform="scale(0.015625)"/>
      <path id="DejaVuSans-75" d="M 544 1381 
L 544 3500 
L 1119 3500 
L 1119 1403 
Q 1119 906 1312 657 
Q 1506 409 1894 409 
Q 2359 409 2629 706 
Q 2900 1003 2900 1516 
L 2900 3500 
L 3475 3500 
L 3475 0 
L 2900 0 
L 2900 538 
Q 2691 219 2414 64 
Q 2138 -91 1772 -91 
Q 1169 -91 856 284 
Q 544 659 544 1381 
z
M 1991 3584 
L 1991 3584 
z
" transform="scale(0.015625)"/>
      <path id="DejaVuSans-72" d="M 2631 2963 
Q 2534 3019 2420 3045 
Q 2306 3072 2169 3072 
Q 1681 3072 1420 2755 
Q 1159 2438 1159 1844 
L 1159 0 
L 581 0 
L 581 3500 
L 1159 3500 
L 1159 2956 
Q 1341 3275 1631 3429 
Q 1922 3584 2338 3584 
Q 2397 3584 2469 3576 
Q 2541 3569 2628 3553 
L 2631 2963 
z
" transform="scale(0.015625)"/>
     </defs>
     <use xlink:href="#DejaVuSans-53"/>
     <use xlink:href="#DejaVuSans-75" transform="translate(63.476562 0)"/>
     <use xlink:href="#DejaVuSans-72" transform="translate(126.855469 0)"/>
     <use xlink:href="#DejaVuSans-67" transform="translate(166.21875 0)"/>
     <use xlink:href="#DejaVuSans-65" transform="translate(229.695312 0)"/>
     <use xlink:href="#DejaVuSans-72" transform="translate(291.21875 0)"/>
     <use xlink:href="#DejaVuSans-79" transform="translate(332.332031 0)"/>
    </g>
   </g>
   <g id="text_8">
    <!-- Rehabilitation -->
    <g style="fill: #ffffff; opacity: 0.95" transform="translate(152.396875 261.35925) scale(0.12 -0.12)">
     <defs>
      <path id="DejaVuSans-52" d="M 2841 2188 
Q 3044 2119 3236 1894 
Q 3428 1669 3622 1275 
L 4263 0 
L 3584 0 
L 2988 1197 
Q 2756 1666 2539 1819 
Q 2322 1972 1947 1972 
L 1259 1972 
L 1259 0 
L 628 0 
L 628 4666 
L 2053 4666 
Q 2853 4666 3247 4331 
Q 3641 3997 3641 3322 
Q 3641 2881 3436 2590 
Q 3231 2300 2841 2188 
z
M 1259 4147 
L 1259 2491 
L 2053 2491 
Q 2509 2491 2742 2702 
Q 2975 2913 2975 3322 
Q 2975 3731 2742 3939 
Q 2509 4147 2053 4147 
L 1259 4147 
z
" transform="scale(0.015625)"/>
      <path id="DejaVuSans-68" d="M 3513 2113 
L 3513 0 
L 2938 0 
L 2938 2094 
Q 2938 2591 2744 2837 
Q 2550 3084 2163 3084 
Q 1697 3084 1428 2787 
Q 1159 2491 1159 1978 
L 1159 0 
L 581 0 
L 581 4863 
L 1159 4863 
L 1159 2956 
Q 1366 3272 1645 3428 
Q 1925 3584 2291 3584 
Q 2894 3584 3203 3211 
Q 3513 2838 3513 2113 
z
" transform="scale(0.015625)"/>
      <path id="DejaVuSans-6f" d="M 1959 3097 
Q 1497 3097 1228 2736 
Q 959 2375 959 1747 
Q 959 1119 1226 758 
Q 1494 397 1959 397 
Q 2419 397 2687 759 
Q 2956 1122 2956 1747 
Q 2956 2369 2687 2733 
Q 2419 3097 1959 3097 
z
M 1959 3584 
Q 2709 3584 3137 3096 
Q 3566 2609 3566 1747 
Q 3566 888 3137 398 
Q 2709 -91 1959 -91 
Q 1206 -91 779 398 
Q 353 888 353 1747 
Q 353 2609 779 3096 
Q 1206 3584 1959 3584 
z
" transform="scale(0.015625)"/>
     </defs>
     <use xlink:href="#DejaVuSans-52"/>
     <use xlink:href="#DejaVuSans-65" transform="translate(64.982422 0)"/>
     <use xlink:href="#DejaVuSans-68" transform="translate(126.505859 0)"/>
     <use xlink:href="#DejaVuSans-61" transform="translate(189.884766 0)"/>
     <use xlink:href="#DejaVuSans-62" transform="translate(251.164062 0)"/>
     <use xlink:href="#DejaVuSans-69" transform="translate(314.640625 0)"/>
     <use xlink:href="#DejaVuSans-6c" transform="translate(342.423828 0)"/>
     <use xlink:href="#DejaVuSans-69" transform="translate(370.207031 0)"/>
     <use xlink:href="#DejaVuSans-74" transform="translate(397.990234 0)"/>
     <use xlink:href="#DejaVuSans-61" transform="translate(437.199219 0)"/>
     <use xlink:href="#DejaVuSans-74" transform="translate(498.478516 0)"/>
     <use xlink:href="#DejaVuSans-69" transform="translate(537.6875 0)"/>
     <use xlink:href="#DejaVuSans-6f" transform="translate(565.470703 0)"/>
     <use xlink:href="#DejaVuSans-6e" transform="translate(626.652344 0)"/>
    </g>
   </g>
   <g id="text_9">
    <!-- Prosthetics -->
    <g style="fill: #ffffff; opacity: 0.95" transform="translate(160.867188 319.24725) scale(0.12 -0.12)">
     <use xlink:href="#DejaVuSans-50"/>
     <use xlink:href="#DejaVuSans-72" transform="translate(58.552734 0)"/>
     <use xlink:href="#DejaVuSans-6f" transform="translate(97.416016 0)"/>
     <use xlink:href="#DejaVuSans-73" transform="translate(158.597656 0)"/>
     <use xlink:href="#DejaVuSans-74" transform="translate(210.697266 0)"/>
     <use xlink:href="#DejaVuSans-68" transform="translate(249.90625 0)"/>
     <use xlink:href="#DejaVuSans-65" transform="translate(313.285156 0)"/>
     <use xlink:href="#DejaVuSans-74" transform="translate(374.808594 0)"/>
     <use xlink:href="#DejaVuSans-69" transform="translate(414.017578 0)"/>
     <use xlink:href="#DejaVuSans-63" transform="translate(441.800781 0)"/>
     <use xlink:href="#DejaVuSans-73" transform="translate(496.78125 0)"/>
    </g>
   </g>
   <g id="text_10">
    <!-- Lab automation -->
    <g style="fill: #ffffff; opacity: 0.95" transform="translate(146.545938 377.13525) scale(0.12 -0.12)">
     <defs>
      <path id="DejaVuSans-4c" d="M 628 4666 
L 1259 4666 
L 1259 531 
L 3531 531 
L 3531 0 
L 628 0 
L 628 4666 
z
" transform="scale(0.015625)"/>
      <path id="DejaVuSans-20" transform="scale(0.015625)"/>
     </defs>
     <use xlink:href="#DejaVuSans-4c"/>
     <use xlink:href="#DejaVuSans-61" transform="translate(55.712891 0)"/>
     <use xlink:href="#DejaVuSans-62" transform="translate(116.992188 0)"/>
     <use xlink:href="#DejaVuSans-20" transform="translate(180.46875 0)"/>
     <use xlink:href="#DejaVuSans-61" transform="translate(212.255859 0)"/>
     <use xlink:href="#DejaVuSans-75" transform="translate(273.535156 0)"/>
     <use xlink:href="#DejaVuSans-74" transform="translate(336.914062 0)"/>
     <use xlink:href="#DejaVuSans-6f" transform="translate(376.123047 0)"/>
     <use xlink:href="#DejaVuSans-6d" transform="translate(437.304688 0)"/>
     <use xlink:href="#DejaVuSans-61" transform="translate(534.716797 0)"/>
     <use xlink:href="#DejaVuSans-74" transform="translate(595.996094 0)"/>
     <use xlink:href="#DejaVuSans-69" transform="translate(635.205078 0)"/>
     <use xlink:href="#DejaVuSans-6f" transform="translate(662.988281 0)"/>
     <use xlink:href="#DejaVuSans-6e" transform="translate(724.169922 0)"/>
    </g>
   </g>
   <g id="text_11">
    <!-- Exploration -->
    <g style="fill: #ffffff" transform="translate(262.7075 130.3095) scale(0.16 -0.16)">
     <defs>
      <path id="DejaVuSans-Bold-45" d="M 588 4666 
L 3834 4666 
L 3834 3756 
L 1791 3756 
L 1791 2888 
L 3713 2888 
L 3713 1978 
L 1791 1978 
L 1791 909 
L 3903 909 
L 3903 0 
L 588 0 
L 588 4666 
z
" transform="scale(0.015625)"/>
      <path id="DejaVuSans-Bold-78" d="M 1422 1791 
L 159 3500 
L 1344 3500 
L 2059 2463 
L 2784 3500 
L 3969 3500 
L 2706 1797 
L 4031 0 
L 2847 0 
L 2059 1106 
L 1281 0 
L 97 0 
L 1422 1791 
z
" transform="scale(0.015625)"/>
      <path id="DejaVuSans-Bold-70" d="M 1656 506 
L 1656 -1331 
L 538 -1331 
L 538 3500 
L 1656 3500 
L 1656 2988 
Q 1888 3294 2169 3439 
Q 2450 3584 2816 3584 
Q 3463 3584 3878 3070 
Q 4294 2556 4294 1747 
Q 4294 938 3878 423 
Q 3463 -91 2816 -91 
Q 2450 -91 2169 54 
Q 1888 200 1656 506 
z
M 2400 2772 
Q 2041 2772 1848 2508 
Q 1656 2244 1656 1747 
Q 1656 1250 1848 986 
Q 2041 722 2400 722 
Q 2759 722 2948 984 
Q 3138 1247 3138 1747 
Q 3138 2247 2948 2509 
Q 2759 2772 2400 2772 
z
" transform="scale(0.015625)"/>
      <path id="DejaVuSans-Bold-6f" d="M 2203 2784 
Q 1831 2784 1636 2517 
Q 1441 2250 1441 1747 
Q 1441 1244 1636 976 
Q 1831 709 2203 709 
Q 2569 709 2762 976 
Q 2956 1244 2956 1747 
Q 2956 2250 2762 2517 
Q 2569 2784 2203 2784 
z
M 2203 3584 
Q 3106 3584 3614 3096 
Q 4122 2609 4122 1747 
Q 4122 884 3614 396 
Q 3106 -91 2203 -91 
Q 1297 -91 786 396 
Q 275 884 275 1747 
Q 275 2609 786 3096 
Q 1297 3584 2203 3584 
z
" transform="scale(0.015625)"/>
     </defs>
     <use xlink:href="#DejaVuSans-Bold-45"/>
     <use xlink:href="#DejaVuSans-Bold-78" transform="translate(68.310547 0)"/>
     <use xlink:href="#DejaVuSans-Bold-70" transform="translate(132.8125 0)"/>
     <use xlink:href="#DejaVuSans-Bold-6c" transform="translate(204.394531 0)"/>
     <use xlink:href="#DejaVuSans-Bold-6f" transform="translate(238.671875 0)"/>
     <use xlink:href="#DejaVuSans-Bold-72" transform="translate(307.373047 0)"/>
     <use xlink:href="#DejaVuSans-Bold-61" transform="translate(356.689453 0)"/>
     <use xlink:href="#DejaVuSans-Bold-74" transform="translate(424.169922 0)"/>
     <use xlink:href="#DejaVuSans-Bold-69" transform="translate(471.972656 0)"/>
     <use xlink:href="#DejaVuSans-Bold-6f" transform="translate(506.25 0)"/>
     <use xlink:href="#DejaVuSans-Bold-6e" transform="translate(574.951172 0)"/>
    </g>
   </g>
   <g id="text_12">
    <!-- Mars rovers -->
    <g style="fill: #ffffff; opacity: 0.95" transform="translate(279.207812 203.47125) scale(0.12 -0.12)">
     <defs>
      <path id="DejaVuSans-4d" d="M 628 4666 
L 1569 4666 
L 2759 1491 
L 3956 4666 
L 4897 4666 
L 4897 0 
L 4281 0 
L 4281 4097 
L 3078 897 
L 2444 897 
L 1241 4097 
L 1241 0 
L 628 0 
L 628 4666 
z
" transform="scale(0.015625)"/>
      <path id="DejaVuSans-76" d="M 191 3500 
L 800 3500 
L 1894 563 
L 2988 3500 
L 3597 3500 
L 2284 0 
L 1503 0 
L 191 3500 
z
" transform="scale(0.015625)"/>
     </defs>
     <use xlink:href="#DejaVuSans-4d"/>
     <use xlink:href="#DejaVuSans-61" transform="translate(86.279297 0)"/>
     <use xlink:href="#DejaVuSans-72" transform="translate(147.558594 0)"/>
     <use xlink:href="#DejaVuSans-73" transform="translate(188.671875 0)"/>
     <use xlink:href="#DejaVuSans-20" transform="translate(240.771484 0)"/>
     <use xlink:href="#DejaVuSans-72" transform="translate(272.558594 0)"/>
     <use xlink:href="#DejaVuSans-6f" transform="translate(311.421875 0)"/>
     <use xlink:href="#DejaVuSans-76" transform="translate(372.603516 0)"/>
     <use xlink:href="#DejaVuSans-65" transform="translate(431.783203 0)"/>
     <use xlink:href="#DejaVuSans-72" transform="translate(493.306641 0)"/>
     <use xlink:href="#DejaVuSans-73" transform="translate(534.419922 0)"/>
    </g>
   </g>
   <g id="text_13">
    <!-- Underwater -->
    <g style="fill: #ffffff; opacity: 0.95" transform="translate(279.143125 261.35925) scale(0.12 -0.12)">
     <defs>
      <path id="DejaVuSans-55" d="M 556 4666 
L 1191 4666 
L 1191 1831 
Q 1191 1081 1462 751 
Q 1734 422 2344 422 
Q 2950 422 3222 751 
Q 3494 1081 3494 1831 
L 3494 4666 
L 4128 4666 
L 4128 1753 
Q 4128 841 3676 375 
Q 3225 -91 2344 -91 
Q 1459 -91 1007 375 
Q 556 841 556 1753 
L 556 4666 
z
" transform="scale(0.015625)"/>
      <path id="DejaVuSans-77" d="M 269 3500 
L 844 3500 
L 1563 769 
L 2278 3500 
L 2956 3500 
L 3675 769 
L 4391 3500 
L 4966 3500 
L 4050 0 
L 3372 0 
L 2619 2869 
L 1863 0 
L 1184 0 
L 269 3500 
z
" transform="scale(0.015625)"/>
     </defs>
     <use xlink:href="#DejaVuSans-55"/>
     <use xlink:href="#DejaVuSans-6e" transform="translate(73.193359 0)"/>
     <use xlink:href="#DejaVuSans-64" transform="translate(136.572266 0)"/>
     <use xlink:href="#DejaVuSans-65" transform="translate(200.048828 0)"/>
     <use xlink:href="#DejaVuSans-72" transform="translate(261.572266 0)"/>
     <use xlink:href="#DejaVuSans-77" transform="translate(302.685547 0)"/>
     <use xlink:href="#DejaVuSans-61" transform="translate(384.472656 0)"/>
     <use xlink:href="#DejaVuSans-74" transform="translate(445.751953 0)"/>
     <use xlink:href="#DejaVuSans-65" transform="translate(484.960938 0)"/>
     <use xlink:href="#DejaVuSans-72" transform="translate(546.484375 0)"/>
    </g>
   </g>
   <g id="text_14">
    <!-- Drones -->
    <g style="fill: #ffffff; opacity: 0.95" transform="translate(293.155937 319.24725) scale(0.12 -0.12)">
     <defs>
      <path id="DejaVuSans-44" d="M 1259 4147 
L 1259 519 
L 2022 519 
Q 2988 519 3436 956 
Q 3884 1394 3884 2338 
Q 3884 3275 3436 3711 
Q 2988 4147 2022 4147 
L 1259 4147 
z
M 628 4666 
L 1925 4666 
Q 3281 4666 3915 4102 
Q 4550 3538 4550 2338 
Q 4550 1131 3912 565 
Q 3275 0 1925 0 
L 628 0 
L 628 4666 
z
" transform="scale(0.015625)"/>
     </defs>
     <use xlink:href="#DejaVuSans-44"/>
     <use xlink:href="#DejaVuSans-72" transform="translate(77.001953 0)"/>
     <use xlink:href="#DejaVuSans-6f" transform="translate(115.865234 0)"/>
     <use xlink:href="#DejaVuSans-6e" transform="translate(177.046875 0)"/>
     <use xlink:href="#DejaVuSans-65" transform="translate(240.425781 0)"/>
     <use xlink:href="#DejaVuSans-73" transform="translate(301.949219 0)"/>
    </g>
   </g>
   <g id="text_15">
    <!-- Search &amp; rescue -->
    <g style="fill: #ffffff; opacity: 0.95" transform="translate(265.3525 377.13525) scale(0.12 -0.12)">
     <defs>
      <path id="DejaVuSans-26" d="M 1556 2509 
Q 1272 2256 1139 2004 
Q 1006 1753 1006 1478 
Q 1006 1022 1337 719 
Q 1669 416 2169 416 
Q 2466 416 2725 514 
Q 2984 613 3213 813 
L 1556 2509 
z
M 1997 2859 
L 3584 1234 
Q 3769 1513 3872 1830 
Q 3975 2147 3994 2503 
L 4575 2503 
Q 4538 2091 4375 1687 
Q 4213 1284 3922 891 
L 4794 0 
L 4006 0 
L 3559 459 
Q 3234 181 2878 45 
Q 2522 -91 2113 -91 
Q 1359 -91 881 339 
Q 403 769 403 1441 
Q 403 1841 612 2192 
Q 822 2544 1241 2853 
Q 1091 3050 1012 3245 
Q 934 3441 934 3628 
Q 934 4134 1281 4442 
Q 1628 4750 2203 4750 
Q 2463 4750 2720 4694 
Q 2978 4638 3244 4525 
L 3244 3956 
Q 2972 4103 2725 4179 
Q 2478 4256 2266 4256 
Q 1938 4256 1733 4082 
Q 1528 3909 1528 3634 
Q 1528 3475 1620 3314 
Q 1713 3153 1997 2859 
z
" transform="scale(0.015625)"/>
     </defs>
     <use xlink:href="#DejaVuSans-53"/>
     <use xlink:href="#DejaVuSans-65" transform="translate(63.476562 0)"/>
     <use xlink:href="#DejaVuSans-61" transform="translate(125 0)"/>
     <use xlink:href="#DejaVuSans-72" transform="translate(186.279297 0)"/>
     <use xlink:href="#DejaVuSans-63" transform="translate(225.142578 0)"/>
     <use xlink:href="#DejaVuSans-68" transform="translate(280.123047 0)"/>
     <use xlink:href="#DejaVuSans-20" transform="translate(343.501953 0)"/>
     <use xlink:href="#DejaVuSans-26" transform="translate(375.289062 0)"/>
     <use xlink:href="#DejaVuSans-20" transform="translate(453.267578 0)"/>
     <use xlink:href="#DejaVuSans-72" transform="translate(485.054688 0)"/>
     <use xlink:href="#DejaVuSans-65" transform="translate(523.917969 0)"/>
     <use xlink:href="#DejaVuSans-73" transform="translate(585.441406 0)"/>
     <use xlink:href="#DejaVuSans-63" transform="translate(637.541016 0)"/>
     <use xlink:href="#DejaVuSans-75" transform="translate(692.521484 0)"/>
     <use xlink:href="#DejaVuSans-65" transform="translate(755.900391 0)"/>
    </g>
   </g>
   <g id="text_16">
    <!-- Service -->
    <g style="fill: #ffffff" transform="translate(401.74 130.3095) scale(0.16 -0.16)">
     <defs>
      <path id="DejaVuSans-Bold-53" d="M 3834 4519 
L 3834 3531 
Q 3450 3703 3084 3790 
Q 2719 3878 2394 3878 
Q 1963 3878 1756 3759 
Q 1550 3641 1550 3391 
Q 1550 3203 1689 3098 
Q 1828 2994 2194 2919 
L 2706 2816 
Q 3484 2659 3812 2340 
Q 4141 2022 4141 1434 
Q 4141 663 3683 286 
Q 3225 -91 2284 -91 
Q 1841 -91 1394 -6 
Q 947 78 500 244 
L 500 1259 
Q 947 1022 1364 901 
Q 1781 781 2169 781 
Q 2563 781 2772 912 
Q 2981 1044 2981 1288 
Q 2981 1506 2839 1625 
Q 2697 1744 2272 1838 
L 1806 1941 
Q 1106 2091 782 2419 
Q 459 2747 459 3303 
Q 459 4000 909 4375 
Q 1359 4750 2203 4750 
Q 2588 4750 2994 4692 
Q 3400 4634 3834 4519 
z
" transform="scale(0.015625)"/>
      <path id="DejaVuSans-Bold-76" d="M 97 3500 
L 1216 3500 
L 2088 1081 
L 2956 3500 
L 4078 3500 
L 2700 0 
L 1472 0 
L 97 3500 
z
" transform="scale(0.015625)"/>
     </defs>
     <use xlink:href="#DejaVuSans-Bold-53"/>
     <use xlink:href="#DejaVuSans-Bold-65" transform="translate(72.021484 0)"/>
     <use xlink:href="#DejaVuSans-Bold-72" transform="translate(139.84375 0)"/>
     <use xlink:href="#DejaVuSans-Bold-76" transform="translate(189.160156 0)"/>
     <use xlink:href="#DejaVuSans-Bold-69" transform="translate(254.345703 0)"/>
     <use xlink:href="#DejaVuSans-Bold-63" transform="translate(288.623047 0)"/>
     <use xlink:href="#DejaVuSans-Bold-65" transform="translate(347.900391 0)"/>
    </g>
   </g>
   <g id="text_17">
    <!-- Warehousing -->
    <g style="fill: #ffffff; opacity: 0.95" transform="translate(396.068125 203.47125) scale(0.12 -0.12)">
     <use xlink:href="#DejaVuSans-57"/>
     <use xlink:href="#DejaVuSans-61" transform="translate(92.501953 0)"/>
     <use xlink:href="#DejaVuSans-72" transform="translate(153.78125 0)"/>
     <use xlink:href="#DejaVuSans-65" transform="translate(192.644531 0)"/>
     <use xlink:href="#DejaVuSans-68" transform="translate(254.167969 0)"/>
     <use xlink:href="#DejaVuSans-6f" transform="translate(317.546875 0)"/>
     <use xlink:href="#DejaVuSans-75" transform="translate(378.728516 0)"/>
     <use xlink:href="#DejaVuSans-73" transform="translate(442.107422 0)"/>
     <use xlink:href="#DejaVuSans-69" transform="translate(494.207031 0)"/>
     <use xlink:href="#DejaVuSans-6e" transform="translate(521.990234 0)"/>
     <use xlink:href="#DejaVuSans-67" transform="translate(585.369141 0)"/>
    </g>
   </g>
   <g id="text_18">
    <!-- Cleaning -->
    <g style="fill: #ffffff; opacity: 0.95" transform="translate(408.6925 261.35925) scale(0.12 -0.12)">
     <defs>
      <path id="DejaVuSans-43" d="M 4122 4306 
L 4122 3641 
Q 3803 3938 3442 4084 
Q 3081 4231 2675 4231 
Q 1875 4231 1450 3742 
Q 1025 3253 1025 2328 
Q 1025 1406 1450 917 
Q 1875 428 2675 428 
Q 3081 428 3442 575 
Q 3803 722 4122 1019 
L 4122 359 
Q 3791 134 3420 21 
Q 3050 -91 2638 -91 
Q 1578 -91 968 557 
Q 359 1206 359 2328 
Q 359 3453 968 4101 
Q 1578 4750 2638 4750 
Q 3056 4750 3426 4639 
Q 3797 4528 4122 4306 
z
" transform="scale(0.015625)"/>
     </defs>
     <use xlink:href="#DejaVuSans-43"/>
     <use xlink:href="#DejaVuSans-6c" transform="translate(69.824219 0)"/>
     <use xlink:href="#DejaVuSans-65" transform="translate(97.607422 0)"/>
     <use xlink:href="#DejaVuSans-61" transform="translate(159.130859 0)"/>
     <use xlink:href="#DejaVuSans-6e" transform="translate(220.410156 0)"/>
     <use xlink:href="#DejaVuSans-69" transform="translate(283.789062 0)"/>
     <use xlink:href="#DejaVuSans-6e" transform="translate(311.572266 0)"/>
     <use xlink:href="#DejaVuSans-67" transform="translate(374.951172 0)"/>
    </g>
   </g>
   <g id="text_19">
    <!-- Delivery -->
    <g style="fill: #ffffff; opacity: 0.95" transform="translate(410.092187 319.24725) scale(0.12 -0.12)">
     <use xlink:href="#DejaVuSans-44"/>
     <use xlink:href="#DejaVuSans-65" transform="translate(77.001953 0)"/>
     <use xlink:href="#DejaVuSans-6c" transform="translate(138.525391 0)"/>
     <use xlink:href="#DejaVuSans-69" transform="translate(166.308594 0)"/>
     <use xlink:href="#DejaVuSans-76" transform="translate(194.091797 0)"/>
     <use xlink:href="#DejaVuSans-65" transform="translate(253.271484 0)"/>
     <use xlink:href="#DejaVuSans-72" transform="translate(314.794922 0)"/>
     <use xlink:href="#DejaVuSans-79" transform="translate(355.908203 0)"/>
    </g>
   </g>
   <g id="text_20">
    <!-- Agriculture -->
    <g style="fill: #ffffff; opacity: 0.95" transform="translate(402.005312 377.13525) scale(0.12 -0.12)">
     <use xlink:href="#DejaVuSans-41"/>
     <use xlink:href="#DejaVuSans-67" transform="translate(68.408203 0)"/>
     <use xlink:href="#DejaVuSans-72" transform="translate(131.884766 0)"/>
     <use xlink:href="#DejaVuSans-69" transform="translate(172.998047 0)"/>
     <use xlink:href="#DejaVuSans-63" transform="translate(200.78125 0)"/>
     <use xlink:href="#DejaVuSans-75" transform="translate(255.761719 0)"/>
     <use xlink:href="#DejaVuSans-6c" transform="translate(319.140625 0)"/>
     <use xlink:href="#DejaVuSans-74" transform="translate(346.923828 0)"/>
     <use xlink:href="#DejaVuSans-75" transform="translate(386.132812 0)"/>
     <use xlink:href="#DejaVuSans-72" transform="translate(449.511719 0)"/>
     <use xlink:href="#DejaVuSans-65" transform="translate(488.375 0)"/>
    </g>
   </g>
   <g id="text_21">
    <!-- Why Study Robotics? -->
    <g style="fill: #333333" transform="translate(123.315625 48.036563) scale(0.22 -0.22)">
     <defs>
      <path id="DejaVuSans-Bold-57" d="M 191 4666 
L 1344 4666 
L 2150 1275 
L 2950 4666 
L 4109 4666 
L 4909 1275 
L 5716 4666 
L 6859 4666 
L 5759 0 
L 4372 0 
L 3525 3547 
L 2688 0 
L 1300 0 
L 191 4666 
z
" transform="scale(0.015625)"/>
      <path id="DejaVuSans-Bold-79" d="M 78 3500 
L 1197 3500 
L 2138 1125 
L 2938 3500 
L 4056 3500 
L 2584 -331 
Q 2363 -916 2067 -1148 
Q 1772 -1381 1288 -1381 
L 641 -1381 
L 641 -647 
L 991 -647 
Q 1275 -647 1404 -556 
Q 1534 -466 1606 -231 
L 1638 -134 
L 78 3500 
z
" transform="scale(0.015625)"/>
      <path id="DejaVuSans-Bold-20" transform="scale(0.015625)"/>
      <path id="DejaVuSans-Bold-64" d="M 2919 2988 
L 2919 4863 
L 4044 4863 
L 4044 0 
L 2919 0 
L 2919 506 
Q 2688 197 2409 53 
Q 2131 -91 1766 -91 
Q 1119 -91 703 423 
Q 288 938 288 1747 
Q 288 2556 703 3070 
Q 1119 3584 1766 3584 
Q 2128 3584 2408 3439 
Q 2688 3294 2919 2988 
z
M 2181 722 
Q 2541 722 2730 984 
Q 2919 1247 2919 1747 
Q 2919 2247 2730 2509 
Q 2541 2772 2181 2772 
Q 1825 2772 1636 2509 
Q 1447 2247 1447 1747 
Q 1447 1247 1636 984 
Q 1825 722 2181 722 
z
" transform="scale(0.015625)"/>
      <path id="DejaVuSans-Bold-52" d="M 2297 2597 
Q 2675 2597 2839 2737 
Q 3003 2878 3003 3200 
Q 3003 3519 2839 3656 
Q 2675 3794 2297 3794 
L 1791 3794 
L 1791 2597 
L 2297 2597 
z
M 1791 1766 
L 1791 0 
L 588 0 
L 588 4666 
L 2425 4666 
Q 3347 4666 3776 4356 
Q 4206 4047 4206 3378 
Q 4206 2916 3982 2619 
Q 3759 2322 3309 2181 
Q 3556 2125 3751 1926 
Q 3947 1728 4147 1325 
L 4800 0 
L 3519 0 
L 2950 1159 
Q 2778 1509 2601 1637 
Q 2425 1766 2131 1766 
L 1791 1766 
z
" transform="scale(0.015625)"/>
      <path id="DejaVuSans-Bold-62" d="M 2400 722 
Q 2759 722 2948 984 
Q 3138 1247 3138 1747 
Q 3138 2247 2948 2509 
Q 2759 2772 2400 2772 
Q 2041 2772 1848 2508 
Q 1656 2244 1656 1747 
Q 1656 1250 1848 986 
Q 2041 722 2400 722 
z
M 1656 2988 
Q 1888 3294 2169 3439 
Q 2450 3584 2816 3584 
Q 3463 3584 3878 3070 
Q 4294 2556 4294 1747 
Q 4294 938 3878 423 
Q 3463 -91 2816 -91 
Q 2450 -91 2169 54 
Q 1888 200 1656 506 
L 1656 0 
L 538 0 
L 538 4863 
L 1656 4863 
L 1656 2988 
z
" transform="scale(0.015625)"/>
      <path id="DejaVuSans-Bold-73" d="M 3272 3391 
L 3272 2541 
Q 2913 2691 2578 2766 
Q 2244 2841 1947 2841 
Q 1628 2841 1473 2761 
Q 1319 2681 1319 2516 
Q 1319 2381 1436 2309 
Q 1553 2238 1856 2203 
L 2053 2175 
Q 2913 2066 3209 1816 
Q 3506 1566 3506 1031 
Q 3506 472 3093 190 
Q 2681 -91 1863 -91 
Q 1516 -91 1145 -36 
Q 775 19 384 128 
L 384 978 
Q 719 816 1070 734 
Q 1422 653 1784 653 
Q 2113 653 2278 743 
Q 2444 834 2444 1013 
Q 2444 1163 2330 1236 
Q 2216 1309 1875 1350 
L 1678 1375 
Q 931 1469 631 1722 
Q 331 1975 331 2491 
Q 331 3047 712 3315 
Q 1094 3584 1881 3584 
Q 2191 3584 2531 3537 
Q 2872 3491 3272 3391 
z
" transform="scale(0.015625)"/>
      <path id="DejaVuSans-Bold-3f" d="M 2216 1575 
L 1088 1575 
L 1088 1728 
Q 1088 1984 1191 2182 
Q 1294 2381 1625 2688 
L 1825 2869 
Q 2003 3031 2086 3175 
Q 2169 3319 2169 3463 
Q 2169 3681 2019 3804 
Q 1869 3928 1600 3928 
Q 1347 3928 1053 3823 
Q 759 3719 441 3513 
L 441 4494 
Q 819 4625 1131 4687 
Q 1444 4750 1734 4750 
Q 2497 4750 2897 4439 
Q 3297 4128 3297 3531 
Q 3297 3225 3175 2983 
Q 3053 2741 2759 2463 
L 2559 2284 
Q 2347 2091 2281 1973 
Q 2216 1856 2216 1716 
L 2216 1575 
z
M 1088 1113 
L 2216 1113 
L 2216 0 
L 1088 0 
L 1088 1113 
z
" transform="scale(0.015625)"/>
     </defs>
     <use xlink:href="#DejaVuSans-Bold-57"/>
     <use xlink:href="#DejaVuSans-Bold-68" transform="translate(110.302734 0)"/>
     <use xlink:href="#DejaVuSans-Bold-79" transform="translate(181.494141 0)"/>
     <use xlink:href="#DejaVuSans-Bold-20" transform="translate(246.679688 0)"/>
     <use xlink:href="#DejaVuSans-Bold-53" transform="translate(281.494141 0)"/>
     <use xlink:href="#DejaVuSans-Bold-74" transform="translate(353.515625 0)"/>
     <use xlink:href="#DejaVuSans-Bold-75" transform="translate(401.318359 0)"/>
     <use xlink:href="#DejaVuSans-Bold-64" transform="translate(472.509766 0)"/>
     <use xlink:href="#DejaVuSans-Bold-79" transform="translate(544.091797 0)"/>
     <use xlink:href="#DejaVuSans-Bold-20" transform="translate(609.277344 0)"/>
     <use xlink:href="#DejaVuSans-Bold-52" transform="translate(644.091797 0)"/>
     <use xlink:href="#DejaVuSans-Bold-6f" transform="translate(721.09375 0)"/>
     <use xlink:href="#DejaVuSans-Bold-62" transform="translate(789.794922 0)"/>
     <use xlink:href="#DejaVuSans-Bold-6f" transform="translate(861.376953 0)"/>
     <use xlink:href="#DejaVuSans-Bold-74" transform="translate(930.078125 0)"/>
     <use xlink:href="#DejaVuSans-Bold-69" transform="translate(977.880859 0)"/>
     <use xlink:href="#DejaVuSans-Bold-63" transform="translate(1012.158203 0)"/>
     <use xlink:href="#DejaVuSans-Bold-73" transform="translate(1071.435547 0)"/>
     <use xlink:href="#DejaVuSans-Bold-3f" transform="translate(1130.957031 0)"/>
    </g>
   </g>
  </g>
 </g>
 <defs>
  <clipPath id="pd22a6b7718">
   <rect x="12.89875" y="7.2" width="482.4" height="482.4"/>
  </clipPath>
 </defs>
</svg>
