<?xml version="1.0" encoding="utf-8" standalone="no"?>
<!DOCTYPE svg PUBLIC "-//W3C//DTD SVG 1.1//EN"
  "http://www.w3.org/Graphics/SVG/1.1/DTD/svg11.dtd">
<svg xmlns:xlink="http://www.w3.org/1999/xlink" width="308.8pt" height="281.2pt" viewBox="0 0 308.8 281.2" xmlns="http://www.w3.org/2000/svg" version="1.1">
 <metadata>
  <rdf:RDF xmlns:dc="http://purl.org/dc/elements/1.1/" xmlns:cc="http://creativecommons.org/ns#" xmlns:rdf="http://www.w3.org/1999/02/22-rdf-syntax-ns#">
   <cc:Work>
    <dc:type rdf:resource="http://purl.org/dc/dcmitype/StillImage"/>
    <dc:date>2026-02-06T23:15:01.930806</dc:date>
    <dc:format>image/svg+xml</dc:format>
    <dc:creator>
     <cc:Agent>
      <dc:title>Matplotlib v3.10.0, https://matplotlib.org/</dc:title>
     </cc:Agent>
    </dc:creator>
   </cc:Work>
  </rdf:RDF>
 </metadata>
 <defs>
  <style type="text/css">*{stroke-linejoin: round; stroke-linecap: butt}</style>
 </defs>
 <g id="figure_1">
  <g id="patch_1">
   <path d="M 0 281.2 
L 308.8 281.2 
L 308.8 -0 
L 0 -0 
z
" style="fill: #ffffff"/>
  </g>
  <g id="axes_1">
   <g id="patch_2">
    <path d="M 7.2 274 
L 301.6 274 
L 301.6 7.2 
L 7.2 7.2 
z
" style="fill: #ffffff"/>
   </g>
   <g id="patch_3">
    <path d="M 74.834381 236.162712 
C 73.957084 230.648272 71.804511 225.414006 68.548514 220.877798 
C 65.292517 216.34159 61.022115 212.627458 56.07824 210.031923 
" clip-path="url(#p5bb53e1246)" style="fill: none; stroke: #f39c12; stroke-width: 2.6; stroke-linejoin: miter"/>
   </g>
   <g id="matplotlib.axis_1"/>
   <g id="matplotlib.axis_2"/>
   <g id="line2d_1">
    <path d="M 162.165542 222.269118 
L 136 57.8 
" clip-path="url(#p5bb53e1246)" style="fill: none; stroke-dasharray: 2,3.3; stroke-dashoffset: 0; stroke: #355070; stroke-width: 2"/>
   </g>
   <g id="line2d_2">
    <path d="M 162.165542 222.269118 
" clip-path="url(#p5bb53e1246)" style="fill: none; stroke: #355070; stroke-width: 1.5; stroke-linecap: square"/>
    <defs>
     <path id="m84d833f2d4" d="M 0 2.5 
C 0.663008 2.5 1.29895 2.236584 1.767767 1.767767 
C 2.236584 1.29895 2.5 0.663008 2.5 0 
C 2.5 -0.663008 2.236584 -1.29895 1.767767 -1.767767 
C 1.29895 -2.236584 0.663008 -2.5 0 -2.5 
C -0.663008 -2.5 -1.29895 -2.236584 -1.767767 -1.767767 
C -2.236584 -1.29895 -2.5 -0.663008 -2.5 0 
C -2.5 0.663008 -2.236584 1.29895 -1.767767 1.767767 
C -1.29895 2.236584 -0.663008 2.5 0 2.5 
z
" style="stroke: #355070"/>
    </defs>
    <g clip-path="url(#p5bb53e1246)">
     <use xlink:href="#m84d833f2d4" x="162.165542" y="222.269118" style="fill: #355070; stroke: #355070"/>
    </g>
   </g>
   <g id="line2d_3">
    <path d="M 7.2 241.8 
L 301.6 241.8 
" clip-path="url(#p5bb53e1246)" style="fill: none; stroke: #000000; stroke-opacity: 0.3; stroke-width: 0.6; stroke-linecap: square"/>
   </g>
   <g id="line2d_4">
    <path d="M 39.4 274 
L 39.4 7.2 
" clip-path="url(#p5bb53e1246)" style="fill: none; stroke: #000000; stroke-opacity: 0.3; stroke-width: 0.6; stroke-linecap: square"/>
   </g>
   <g id="patch_4">
    <path d="M 7.2 274 
L 7.2 7.2 
" style="fill: none; stroke: #000000; stroke-width: 0.8; stroke-linejoin: miter; stroke-linecap: square"/>
   </g>
   <g id="patch_5">
    <path d="M 301.6 274 
L 301.6 7.2 
" style="fill: none; stroke: #000000; stroke-width: 0.8; stroke-linejoin: miter; stroke-linecap: square"/>
   </g>
   <g id="patch_6">
    <path d="M 7.2 274 
L 301.6 274 
" style="fill: none; stroke: #000000; stroke-width: 0.8; stroke-linejoin: miter; stroke-linecap: square"/>
   </g>
   <g id="patch_7">
    <path d="M 7.2 7.2 
L 301.6 7.2 
" style="fill: none; stroke: #000000; stroke-width: 0.8; stroke-linejoin: miter; stroke-linecap: square"/>
   </g>
   <g id="patch_8">
    <path d="M 41.373474 241.486038 
Q 140.600446 225.699929 236.514973 210.4408 
" style="fill: none; stroke: #7b2cbf; stroke-width: 3; stroke-linecap: round"/>
    <path d="M 232.250422 209.094099 
L 236.514973 210.4408 
L 232.878882 213.044421 
" style="fill: none; stroke: #7b2cbf; stroke-width: 3; stroke-linecap: round"/>
   </g>
   <g id="patch_9">
    <path d="M 40.330093 240.028394 
Q 87.700098 149.799813 133.511003 62.540947 
" style="fill: none; stroke: #f39c12; stroke-width: 3; stroke-linecap: round"/>
    <path d="M 129.880871 65.152871 
L 133.511003 62.540947 
L 133.422463 67.012207 
" style="fill: none; stroke: #f39c12; stroke-width: 3; stroke-linecap: round"/>
   </g>
   <g id="text_1">
    <!-- $\mathbf{x}$ -->
    <g style="fill: #7b2cbf" transform="translate(251 224.32) scale(0.17 -0.17)">
     <defs>
      <path id="DejaVuSans-Bold-78" d="M 1422 1791 
L 159 3500 
L 1344 3500 
L 2059 2463 
L 2784 3500 
L 3969 3500 
L 2706 1797 
L 4031 0 
L 2847 0 
L 2059 1106 
L 1281 0 
L 97 0 
L 1422 1791 
z
" transform="scale(0.015625)"/>
     </defs>
     <use xlink:href="#DejaVuSans-Bold-78" transform="translate(0 0.3125)"/>
    </g>
   </g>
   <g id="text_2">
    <!-- $\mathbf{y}$ -->
    <g style="fill: #f39c12" transform="translate(112.08 46.76) scale(0.17 -0.17)">
     <defs>
      <path id="DejaVuSans-Bold-79" d="M 78 3500 
L 1197 3500 
L 2138 1125 
L 2938 3500 
L 4056 3500 
L 2584 -331 
Q 2363 -916 2067 -1148 
Q 1772 -1381 1288 -1381 
L 641 -1381 
L 641 -647 
L 991 -647 
Q 1275 -647 1404 -556 
Q 1534 -466 1606 -231 
L 1638 -134 
L 78 3500 
z
" transform="scale(0.015625)"/>
     </defs>
     <use xlink:href="#DejaVuSans-Bold-79" transform="translate(0 0.3125)"/>
    </g>
   </g>
   <g id="patch_10">
    <path d="M 41.374409 241.485889 
Q 100.783903 232.034379 157.653855 222.986887 
" style="fill: none; stroke-dasharray: 8.51,3.68; stroke-dashoffset: 0; stroke: #355070; stroke-width: 2.3; stroke-linecap: round"/>
    <path d="M 153.389304 221.640186 
L 157.653855 222.986887 
L 154.017764 225.590507 
z
" style="fill: #355070; stroke-dasharray: 8.51,3.68; stroke-dashoffset: 0; stroke: #355070; stroke-width: 2.3; stroke-linecap: round"/>
   </g>
   <g id="text_3">
    <!-- $\mathrm{proj}_{\mathbf{x}}(\mathbf{y})$ -->
    <g style="fill: #355070" transform="translate(171.365542 211.229118) scale(0.115 -0.115)">
     <defs>
      <path id="DejaVuSans-70" d="M 1159 525 
L 1159 -1331 
L 581 -1331 
L 581 3500 
L 1159 3500 
L 1159 2969 
Q 1341 3281 1617 3432 
Q 1894 3584 2278 3584 
Q 2916 3584 3314 3078 
Q 3713 2572 3713 1747 
Q 3713 922 3314 415 
Q 2916 -91 2278 -91 
Q 1894 -91 1617 61 
Q 1341 213 1159 525 
z
M 3116 1747 
Q 3116 2381 2855 2742 
Q 2594 3103 2138 3103 
Q 1681 3103 1420 2742 
Q 1159 2381 1159 1747 
Q 1159 1113 1420 752 
Q 1681 391 2138 391 
Q 2594 391 2855 752 
Q 3116 1113 3116 1747 
z
" transform="scale(0.015625)"/>
      <path id="DejaVuSans-72" d="M 2631 2963 
Q 2534 3019 2420 3045 
Q 2306 3072 2169 3072 
Q 1681 3072 1420 2755 
Q 1159 2438 1159 1844 
L 1159 0 
L 581 0 
L 581 3500 
L 1159 3500 
L 1159 2956 
Q 1341 3275 1631 3429 
Q 1922 3584 2338 3584 
Q 2397 3584 2469 3576 
Q 2541 3569 2628 3553 
L 2631 2963 
z
" transform="scale(0.015625)"/>
      <path id="DejaVuSans-6f" d="M 1959 3097 
Q 1497 3097 1228 2736 
Q 959 2375 959 1747 
Q 959 1119 1226 758 
Q 1494 397 1959 397 
Q 2419 397 2687 759 
Q 2956 1122 2956 1747 
Q 2956 2369 2687 2733 
Q 2419 3097 1959 3097 
z
M 1959 3584 
Q 2709 3584 3137 3096 
Q 3566 2609 3566 1747 
Q 3566 888 3137 398 
Q 2709 -91 1959 -91 
Q 1206 -91 779 398 
Q 353 888 353 1747 
Q 353 2609 779 3096 
Q 1206 3584 1959 3584 
z
" transform="scale(0.015625)"/>
      <path id="DejaVuSans-6a" d="M 603 3500 
L 1178 3500 
L 1178 -63 
Q 1178 -731 923 -1031 
Q 669 -1331 103 -1331 
L -116 -1331 
L -116 -844 
L 38 -844 
Q 366 -844 484 -692 
Q 603 -541 603 -63 
L 603 3500 
z
M 603 4863 
L 1178 4863 
L 1178 4134 
L 603 4134 
L 603 4863 
z
" transform="scale(0.015625)"/>
      <path id="DejaVuSans-28" d="M 1984 4856 
Q 1566 4138 1362 3434 
Q 1159 2731 1159 2009 
Q 1159 1288 1364 580 
Q 1569 -128 1984 -844 
L 1484 -844 
Q 1016 -109 783 600 
Q 550 1309 550 2009 
Q 550 2706 781 3412 
Q 1013 4119 1484 4856 
L 1984 4856 
z
" transform="scale(0.015625)"/>
      <path id="DejaVuSans-29" d="M 513 4856 
L 1013 4856 
Q 1481 4119 1714 3412 
Q 1947 2706 1947 2009 
Q 1947 1309 1714 600 
Q 1481 -109 1013 -844 
L 513 -844 
Q 928 -128 1133 580 
Q 1338 1288 1338 2009 
Q 1338 2731 1133 3434 
Q 928 4138 513 4856 
z
" transform="scale(0.015625)"/>
     </defs>
     <use xlink:href="#DejaVuSans-70" transform="translate(0 0.015625)"/>
     <use xlink:href="#DejaVuSans-72" transform="translate(63.476562 0.015625)"/>
     <use xlink:href="#DejaVuSans-6f" transform="translate(104.589844 0.015625)"/>
     <use xlink:href="#DejaVuSans-6a" transform="translate(165.771484 0.015625)"/>
     <use xlink:href="#DejaVuSans-Bold-78" transform="translate(194.511719 -16.390625) scale(0.7)"/>
     <use xlink:href="#DejaVuSans-28" transform="translate(242.397461 0.015625)"/>
     <use xlink:href="#DejaVuSans-Bold-79" transform="translate(281.411133 0.015625)"/>
     <use xlink:href="#DejaVuSans-29" transform="translate(346.59668 0.015625)"/>
    </g>
   </g>
   <g id="text_4">
    <!-- $\theta$ -->
    <g style="fill: #f39c12" transform="translate(79.759481 212.830797) scale(0.15 -0.15)">
     <defs>
      <path id="DejaVuSans-Oblique-3b8" d="M 2913 2219 
L 925 2219 
Q 791 1284 928 888 
Q 1100 400 1566 400 
Q 2034 400 2391 891 
Q 2703 1322 2913 2219 
z
M 3009 2750 
Q 3094 3638 2984 3950 
Q 2813 4444 2353 4444 
Q 1875 4444 1525 3956 
Q 1250 3563 1034 2750 
L 3009 2750 
z
M 2444 4913 
Q 3194 4913 3494 4250 
Q 3794 3591 3566 2422 
Q 3341 1256 2781 594 
Q 2225 -72 1475 -72 
Q 722 -72 425 594 
Q 128 1256 353 2422 
Q 581 3591 1134 4250 
Q 1691 4913 2444 4913 
z
" transform="scale(0.015625)"/>
     </defs>
     <use xlink:href="#DejaVuSans-Oblique-3b8" transform="translate(0 0.234375)"/>
    </g>
   </g>
   <g id="text_5">
    <g id="patch_11">
     <path d="M 18.976 267.14 
L 137.776 267.14 
Q 141.376 267.14 141.376 263.54 
L 141.376 251.42 
Q 141.376 247.82 137.776 247.82 
L 18.976 247.82 
Q 15.376 247.82 15.376 251.42 
L 15.376 263.54 
Q 15.376 267.14 18.976 267.14 
z
" style="fill: #ffffff; opacity: 0.9; stroke: #999999; stroke-linejoin: miter"/>
    </g>
    <!-- $\mathbf{x}\cdot\mathbf{y}=\|\mathbf{x}\|\,\|\mathrm{proj}_{\mathbf{x}}(\mathbf{y})\|$ -->
    <g style="fill: #333333" transform="translate(18.976 260.66) scale(0.12 -0.12)">
     <defs>
      <path id="DejaVuSans-22c5" d="M 684 2619 
L 1344 2619 
L 1344 1825 
L 684 1825 
L 684 2619 
z
" transform="scale(0.015625)"/>
      <path id="DejaVuSans-3d" d="M 678 2906 
L 4684 2906 
L 4684 2381 
L 678 2381 
L 678 2906 
z
M 678 1631 
L 4684 1631 
L 4684 1100 
L 678 1100 
L 678 1631 
z
" transform="scale(0.015625)"/>
      <path id="DejaVuSans-2016" d="M 1344 4891 
L 1344 -1509 
L 813 -1509 
L 813 4891 
L 1344 4891 
z
M 2375 4891 
L 2375 -1509 
L 1844 -1509 
L 1844 4891 
L 2375 4891 
z
" transform="scale(0.015625)"/>
     </defs>
     <use xlink:href="#DejaVuSans-Bold-78" transform="translate(0 0.578125)"/>
     <use xlink:href="#DejaVuSans-22c5" transform="translate(83.984375 0.578125)"/>
     <use xlink:href="#DejaVuSans-Bold-79" transform="translate(135.253906 0.578125)"/>
     <use xlink:href="#DejaVuSans-3d" transform="translate(219.921875 0.578125)"/>
     <use xlink:href="#DejaVuSans-2016" transform="translate(323.193359 0.578125)"/>
     <use xlink:href="#DejaVuSans-Bold-78" transform="translate(373.193359 0.578125)"/>
     <use xlink:href="#DejaVuSans-2016" transform="translate(437.695312 0.578125)"/>
     <use xlink:href="#DejaVuSans-2016" transform="translate(503.930989 0.578125)"/>
     <use xlink:href="#DejaVuSans-70" transform="translate(553.930989 0.578125)"/>
     <use xlink:href="#DejaVuSans-72" transform="translate(617.407551 0.578125)"/>
     <use xlink:href="#DejaVuSans-6f" transform="translate(658.520833 0.578125)"/>
     <use xlink:href="#DejaVuSans-6a" transform="translate(719.702473 0.578125)"/>
     <use xlink:href="#DejaVuSans-Bold-78" transform="translate(748.442708 -15.828125) scale(0.7)"/>
     <use xlink:href="#DejaVuSans-28" transform="translate(796.32845 0.578125)"/>
     <use xlink:href="#DejaVuSans-Bold-79" transform="translate(835.342122 0.578125)"/>
     <use xlink:href="#DejaVuSans-29" transform="translate(900.527668 0.578125)"/>
     <use xlink:href="#DejaVuSans-2016" transform="translate(939.54134 0.578125)"/>
    </g>
   </g>
   <g id="text_6">
    <!-- $O$ -->
    <g transform="translate(46.76 256.52) scale(0.15 -0.15)">
     <defs>
      <path id="DejaVuSans-Oblique-4f" d="M 2919 4238 
Q 2400 4238 2003 3986 
Q 1606 3734 1313 3219 
Q 1125 2891 1026 2522 
Q 928 2153 928 1778 
Q 928 1128 1239 775 
Q 1550 422 2119 422 
Q 2631 422 3032 676 
Q 3434 931 3719 1434 
Q 3909 1772 4009 2142 
Q 4109 2513 4109 2881 
Q 4109 3528 3796 3883 
Q 3484 4238 2919 4238 
z
M 2100 -91 
Q 1241 -91 748 418 
Q 256 928 256 1813 
Q 256 2319 448 2847 
Q 641 3375 978 3788 
Q 1375 4272 1862 4511 
Q 2350 4750 2938 4750 
Q 3794 4750 4287 4245 
Q 4781 3741 4781 2869 
Q 4781 2331 4593 1812 
Q 4406 1294 4056 872 
Q 3656 384 3173 146 
Q 2691 -91 2100 -91 
z
" transform="scale(0.015625)"/>
     </defs>
     <use xlink:href="#DejaVuSans-Oblique-4f" transform="translate(0 0.78125)"/>
    </g>
   </g>
  </g>
 </g>
 <defs>
  <clipPath id="p5bb53e1246">
   <rect x="7.2" y="7.2" width="294.4" height="266.8"/>
  </clipPath>
 </defs>
</svg>
