<?xml version="1.0" encoding="utf-8" standalone="no"?>
<!DOCTYPE svg PUBLIC "-//W3C//DTD SVG 1.1//EN"
  "http://www.w3.org/Graphics/SVG/1.1/DTD/svg11.dtd">
<svg xmlns:xlink="http://www.w3.org/1999/xlink" width="408.137pt" height="352.080pt" viewBox="156.338 8.640 408.137 352.080" xmlns="http://www.w3.org/2000/svg" version="1.1">
 <metadata>
  <rdf:RDF xmlns:dc="http://purl.org/dc/elements/1.1/" xmlns:cc="http://creativecommons.org/ns#" xmlns:rdf="http://www.w3.org/1999/02/22-rdf-syntax-ns#">
   <cc:Work>
    <dc:type rdf:resource="http://purl.org/dc/dcmitype/StillImage"/>
    <dc:date>2026-04-14T13:58:07.723397</dc:date>
    <dc:format>image/svg+xml</dc:format>
    <dc:creator>
     <cc:Agent>
      <dc:title>Matplotlib v3.10.0, https://matplotlib.org/</dc:title>
     </cc:Agent>
    </dc:creator>
   </cc:Work>
  </rdf:RDF>
 </metadata>
 <defs>
  <style type="text/css">*{stroke-linejoin: round; stroke-linecap: butt}</style>
 </defs>
 <g id="figure_1">
  <g id="patch_1">
   <path d="M 0 427.32 
L 572.4 427.32 
L 572.4 0 
L 0 0 
L 0 427.32 
z
" style="fill: none"/>
  </g>
  <g id="axes_1">
   <g id="patch_2">
    <path d="M 342 314.1 
L 342 113.22 
L 230.4 113.22 
L 230.4 314.1 
z
" clip-path="url(#p342aff447f)" style="fill: #dce6f0; stroke: #333333; stroke-width: 1.8; stroke-linejoin: miter"/>
   </g>
   <g id="patch_3">
    <path d="M 286.2 93.132 
L 271.692 118.8 
L 300.708 118.8 
z
" clip-path="url(#p342aff447f)" style="fill: #333333; stroke: #333333; stroke-linejoin: miter"/>
   </g>
   <g id="patch_4">
    <path d="M 286.2 156.744 
C 288.8637 156.744 291.41866 155.685701 293.302181 153.802181 
C 295.185701 151.91866 296.244 149.3637 296.244 146.7 
C 296.244 144.0363 295.185701 141.48134 293.302181 139.597819 
C 291.41866 137.714299 288.8637 136.656 286.2 136.656 
C 283.5363 136.656 280.98134 137.714299 279.097819 139.597819 
C 277.214299 141.48134 276.156 144.0363 276.156 146.7 
C 276.156 149.3637 277.214299 151.91866 279.097819 153.802181 
C 280.98134 155.685701 283.5363 156.744 286.2 156.744 
z
" clip-path="url(#p342aff447f)" style="fill: #aaaaaa; stroke: #444444; stroke-width: 1.2; stroke-linejoin: miter"/>
   </g>
   <g id="patch_5">
    <path d="M 385.421512 146.7 
Q 336.81151 146.7 288.201508 146.7 
" style="fill: none; stroke: #888888; stroke-width: 0.7; stroke-linecap: round"/>
   </g>
   <g id="text_1">
    <!-- caster -->
    <g style="fill: #555555" transform="translate(389.420859 149.183438) scale(0.09 -0.09)">
     <defs>
      <path id="DejaVuSans-Oblique-63" d="M 3431 3366 
L 3316 2797 
Q 3109 2947 2876 3022 
Q 2644 3097 2394 3097 
Q 2119 3097 1870 3000 
Q 1622 2903 1453 2725 
Q 1184 2453 1037 2087 
Q 891 1722 891 1331 
Q 891 859 1127 628 
Q 1363 397 1844 397 
Q 2081 397 2348 469 
Q 2616 541 2906 684 
L 2797 116 
Q 2547 13 2283 -39 
Q 2019 -91 1741 -91 
Q 1044 -91 669 257 
Q 294 606 294 1253 
Q 294 1797 489 2255 
Q 684 2713 1069 3078 
Q 1331 3328 1684 3456 
Q 2038 3584 2456 3584 
Q 2700 3584 2940 3529 
Q 3181 3475 3431 3366 
z
" transform="scale(0.015625)"/>
      <path id="DejaVuSans-Oblique-61" d="M 3438 1997 
L 3047 0 
L 2472 0 
L 2578 531 
Q 2325 219 2001 64 
Q 1678 -91 1281 -91 
Q 834 -91 548 182 
Q 263 456 263 884 
Q 263 1497 752 1853 
Q 1241 2209 2100 2209 
L 2900 2209 
L 2931 2363 
Q 2938 2388 2941 2417 
Q 2944 2447 2944 2509 
Q 2944 2788 2717 2942 
Q 2491 3097 2081 3097 
Q 1800 3097 1504 3025 
Q 1209 2953 897 2809 
L 997 3341 
Q 1322 3463 1633 3523 
Q 1944 3584 2234 3584 
Q 2853 3584 3176 3315 
Q 3500 3047 3500 2534 
Q 3500 2431 3484 2292 
Q 3469 2153 3438 1997 
z
M 2816 1759 
L 2241 1759 
Q 1534 1759 1195 1570 
Q 856 1381 856 984 
Q 856 709 1029 553 
Q 1203 397 1509 397 
Q 1978 397 2328 733 
Q 2678 1069 2791 1631 
L 2816 1759 
z
" transform="scale(0.015625)"/>
      <path id="DejaVuSans-Oblique-73" d="M 3200 3397 
L 3091 2853 
Q 2863 2978 2609 3040 
Q 2356 3103 2088 3103 
Q 1634 3103 1373 2948 
Q 1113 2794 1113 2528 
Q 1113 2219 1719 2053 
Q 1766 2041 1788 2034 
L 1972 1978 
Q 2547 1819 2739 1644 
Q 2931 1469 2931 1166 
Q 2931 609 2489 259 
Q 2047 -91 1331 -91 
Q 1053 -91 747 -37 
Q 441 16 72 128 
L 184 722 
Q 500 559 806 475 
Q 1113 391 1394 391 
Q 1816 391 2080 572 
Q 2344 753 2344 1031 
Q 2344 1331 1650 1516 
L 1591 1531 
L 1394 1581 
Q 956 1697 753 1886 
Q 550 2075 550 2369 
Q 550 2928 970 3256 
Q 1391 3584 2113 3584 
Q 2397 3584 2667 3537 
Q 2938 3491 3200 3397 
z
" transform="scale(0.015625)"/>
      <path id="DejaVuSans-Oblique-74" d="M 2706 3500 
L 2619 3053 
L 1472 3053 
L 1100 1153 
Q 1081 1047 1072 975 
Q 1063 903 1063 863 
Q 1063 663 1183 572 
Q 1303 481 1569 481 
L 2150 481 
L 2053 0 
L 1503 0 
Q 991 0 739 200 
Q 488 400 488 806 
Q 488 878 497 964 
Q 506 1050 525 1153 
L 897 3053 
L 409 3053 
L 500 3500 
L 978 3500 
L 1172 4494 
L 1747 4494 
L 1556 3500 
L 2706 3500 
z
" transform="scale(0.015625)"/>
      <path id="DejaVuSans-Oblique-65" d="M 3078 2063 
Q 3088 2113 3092 2166 
Q 3097 2219 3097 2272 
Q 3097 2653 2873 2875 
Q 2650 3097 2266 3097 
Q 1838 3097 1509 2826 
Q 1181 2556 1013 2059 
L 3078 2063 
z
M 3578 1613 
L 903 1613 
Q 884 1494 878 1425 
Q 872 1356 872 1306 
Q 872 872 1139 634 
Q 1406 397 1894 397 
Q 2269 397 2603 481 
Q 2938 566 3225 728 
L 3116 159 
Q 2806 34 2476 -28 
Q 2147 -91 1806 -91 
Q 1078 -91 686 257 
Q 294 606 294 1247 
Q 294 1794 489 2264 
Q 684 2734 1063 3103 
Q 1306 3334 1642 3459 
Q 1978 3584 2356 3584 
Q 2950 3584 3301 3228 
Q 3653 2872 3653 2272 
Q 3653 2128 3634 1964 
Q 3616 1800 3578 1613 
z
" transform="scale(0.015625)"/>
      <path id="DejaVuSans-Oblique-72" d="M 2853 2969 
Q 2766 3016 2653 3041 
Q 2541 3066 2413 3066 
Q 1953 3066 1609 2717 
Q 1266 2369 1153 1784 
L 800 0 
L 225 0 
L 909 3500 
L 1484 3500 
L 1375 2956 
Q 1603 3259 1920 3421 
Q 2238 3584 2597 3584 
Q 2691 3584 2781 3573 
Q 2872 3563 2963 3538 
L 2853 2969 
z
" transform="scale(0.015625)"/>
     </defs>
     <use xlink:href="#DejaVuSans-Oblique-63"/>
     <use xlink:href="#DejaVuSans-Oblique-61" transform="translate(54.980469 0)"/>
     <use xlink:href="#DejaVuSans-Oblique-73" transform="translate(116.259766 0)"/>
     <use xlink:href="#DejaVuSans-Oblique-74" transform="translate(168.359375 0)"/>
     <use xlink:href="#DejaVuSans-Oblique-65" transform="translate(207.568359 0)"/>
     <use xlink:href="#DejaVuSans-Oblique-72" transform="translate(269.091797 0)"/>
    </g>
   </g>
   <g id="patch_6">
    <path d="M 286.2 284.197412 
Q 286.2 263.879322 286.2 246.244513 
" style="fill: none; stroke: #d62828; stroke-width: 2.4; stroke-linecap: round"/>
    <path d="M 284.2 250.244513 
L 286.2 246.244513 
L 288.2 250.244513 
" style="fill: none; stroke: #d62828; stroke-width: 2.4; stroke-linecap: round"/>
   </g>
   <g id="patch_7">
    <path d="M 284.197412 286.2 
Q 263.879322 286.2 246.244513 286.2 
" style="fill: none; stroke: #2a9d3f; stroke-width: 2.4; stroke-linecap: round"/>
    <path d="M 250.244513 288.2 
L 246.244513 286.2 
L 250.244513 284.2 
" style="fill: none; stroke: #2a9d3f; stroke-width: 2.4; stroke-linecap: round"/>
   </g>
   <g id="text_2">
    <!-- {B} -->
    <g style="fill: #666666" transform="translate(205.848 353.16) scale(0.15 -0.15)">
     <defs>
      <path id="DejaVuSans-Bold-7b" d="M 3756 -341 
L 3756 -1044 
L 3078 -1044 
Q 2397 -1044 2084 -769 
Q 1772 -494 1772 109 
L 1772 709 
Q 1772 1178 1603 1361 
Q 1434 1544 991 1544 
L 800 1544 
L 800 2241 
L 991 2241 
Q 1434 2241 1603 2422 
Q 1772 2603 1772 3072 
L 1772 3713 
Q 1772 4316 2084 4589 
Q 2397 4863 3078 4863 
L 3756 4863 
L 3756 4159 
L 3541 4159 
Q 3100 4159 2967 4023 
Q 2834 3888 2834 3444 
L 2834 2925 
Q 2834 2434 2693 2212 
Q 2553 1991 2209 1913 
Q 2556 1828 2695 1606 
Q 2834 1384 2834 897 
L 2834 378 
Q 2834 -69 2967 -205 
Q 3100 -341 3541 -341 
L 3756 -341 
z
" transform="scale(0.015625)"/>
      <path id="DejaVuSans-Bold-42" d="M 2456 2859 
Q 2741 2859 2887 2984 
Q 3034 3109 3034 3353 
Q 3034 3594 2887 3720 
Q 2741 3847 2456 3847 
L 1791 3847 
L 1791 2859 
L 2456 2859 
z
M 2497 819 
Q 2859 819 3042 972 
Q 3225 1125 3225 1434 
Q 3225 1738 3044 1889 
Q 2863 2041 2497 2041 
L 1791 2041 
L 1791 819 
L 2497 819 
z
M 3616 2497 
Q 4003 2384 4215 2081 
Q 4428 1778 4428 1338 
Q 4428 663 3972 331 
Q 3516 0 2584 0 
L 588 0 
L 588 4666 
L 2394 4666 
Q 3366 4666 3802 4372 
Q 4238 4078 4238 3431 
Q 4238 3091 4078 2852 
Q 3919 2613 3616 2497 
z
" transform="scale(0.015625)"/>
      <path id="DejaVuSans-Bold-7d" d="M 800 -341 
L 1019 -341 
Q 1456 -341 1589 -205 
Q 1722 -69 1722 378 
L 1722 897 
Q 1722 1384 1862 1606 
Q 2003 1828 2350 1913 
Q 2003 1991 1862 2212 
Q 1722 2434 1722 2925 
L 1722 3444 
Q 1722 3888 1589 4023 
Q 1456 4159 1019 4159 
L 800 4159 
L 800 4863 
L 1478 4863 
Q 2159 4863 2471 4589 
Q 2784 4316 2784 3713 
L 2784 3072 
Q 2784 2603 2953 2422 
Q 3122 2241 3566 2241 
L 3756 2241 
L 3756 1544 
L 3566 1544 
Q 3122 1544 2953 1361 
Q 2784 1178 2784 709 
L 2784 109 
Q 2784 -494 2471 -769 
Q 2159 -1044 1478 -1044 
L 800 -1044 
L 800 -341 
z
" transform="scale(0.015625)"/>
     </defs>
     <use xlink:href="#DejaVuSans-Bold-7b"/>
     <use xlink:href="#DejaVuSans-Bold-42" transform="translate(71.191406 0)"/>
     <use xlink:href="#DejaVuSans-Bold-7d" transform="translate(147.412109 0)"/>
    </g>
   </g>
   <g id="patch_8">
    <path d="M 370.458 286.2 
Q 370.458 230.4 370.458 177.954102 
" style="fill: none; stroke: #7b2cbf; stroke-width: 3; stroke-linecap: round"/>
    <path d="M 368.458 181.954102 
L 370.458 177.954102 
L 372.458 181.954102 
" style="fill: none; stroke: #7b2cbf; stroke-width: 3; stroke-linecap: round"/>
   </g>
   <g id="patch_9">
    <path d="M 201.942 286.2 
Q 201.942 255.51 201.942 228.174102 
" style="fill: none; stroke: #7b2cbf; stroke-width: 3; stroke-linecap: round"/>
    <path d="M 199.942 232.174102 
L 201.942 228.174102 
L 203.942 232.174102 
" style="fill: none; stroke: #7b2cbf; stroke-width: 3; stroke-linecap: round"/>
   </g>
   <g id="text_3">
    <!-- $v_R$ -->
    <g style="fill: #7b2cbf" transform="translate(381.618 172.368) scale(0.14 -0.14)">
     <defs>
      <path id="DejaVuSans-Oblique-76" d="M 459 3500 
L 1069 3500 
L 1581 525 
L 3256 3500 
L 3866 3500 
L 1875 0 
L 1100 0 
L 459 3500 
z
" transform="scale(0.015625)"/>
      <path id="DejaVuSans-Oblique-52" d="M 1613 4147 
L 1294 2491 
L 2106 2491 
Q 2584 2491 2879 2755 
Q 3175 3019 3175 3444 
Q 3175 3784 2976 3965 
Q 2778 4147 2406 4147 
L 1613 4147 
z
M 2772 2241 
Q 2972 2194 3105 2009 
Q 3238 1825 3413 1275 
L 3809 0 
L 3144 0 
L 2778 1197 
Q 2638 1659 2453 1815 
Q 2269 1972 1888 1972 
L 1191 1972 
L 806 0 
L 172 0 
L 1081 4666 
L 2503 4666 
Q 3150 4666 3495 4373 
Q 3841 4081 3841 3531 
Q 3841 3044 3547 2687 
Q 3253 2331 2772 2241 
z
" transform="scale(0.015625)"/>
     </defs>
     <use xlink:href="#DejaVuSans-Oblique-76" transform="translate(0 0.3125)"/>
     <use xlink:href="#DejaVuSans-Oblique-52" transform="translate(59.179688 -16.09375) scale(0.7)"/>
    </g>
   </g>
   <g id="text_4">
    <!-- $v_L$ -->
    <g style="fill: #7b2cbf" transform="translate(159.534 222.588) scale(0.14 -0.14)">
     <defs>
      <path id="DejaVuSans-Oblique-4c" d="M 1075 4666 
L 1709 4666 
L 909 525 
L 3181 525 
L 3078 0 
L 172 0 
L 1075 4666 
z
" transform="scale(0.015625)"/>
     </defs>
     <use xlink:href="#DejaVuSans-Oblique-76" transform="translate(0 0.3125)"/>
     <use xlink:href="#DejaVuSans-Oblique-4c" transform="translate(59.179688 -16.09375) scale(0.7)"/>
    </g>
   </g>
   <g id="patch_10">
    <path d="M 319.23004 212.749544 
Q 320.001504 210.283711 319.938385 210.485456 
" style="fill: none; stroke: #f39c12; stroke-width: 2.5; stroke-linecap: round"/>
    <path d="M 316.835266 213.705805 
L 319.938385 210.485456 
L 320.652793 214.900162 
" style="fill: none; stroke: #f39c12; stroke-width: 2.5; stroke-linecap: round"/>
   </g>
   <g id="text_5">
    <!-- $\omega$ -->
    <g style="fill: #f39c12" transform="translate(330.84 201.617063) scale(0.15 -0.15)">
     <defs>
      <path id="DejaVuSans-Oblique-3c9" d="M 1369 -91 
Q 72 -91 434 1766 
Q 575 2500 1256 3500 
L 1875 3500 
Q 1231 2500 1088 1750 
Q 819 397 1519 397 
Q 2166 397 2478 2078 
L 3009 2078 
Q 2669 388 3316 397 
Q 4013 403 4275 1750 
Q 4419 2500 4169 3500 
L 4788 3500 
Q 5075 2500 4934 1766 
Q 4578 -94 3278 -91 
Q 2428 -88 2503 844 
Q 2194 -91 1369 -91 
z
" transform="scale(0.015625)"/>
     </defs>
     <use xlink:href="#DejaVuSans-Oblique-3c9" transform="translate(0 0.3125)"/>
    </g>
   </g>
   <g id="patch_11">
    <path d="M 222.915552 35.1 
Q 286.198808 35.1 349.482064 35.1 
" style="fill: none; stroke: #333333; stroke-width: 1.5; stroke-linecap: round"/>
    <path d="M 226.915552 37.1 
L 222.915552 35.1 
L 226.915552 33.1 
" style="fill: none; stroke: #333333; stroke-width: 1.5; stroke-linecap: round"/>
    <path d="M 345.482064 33.1 
L 349.482064 35.1 
L 345.482064 37.1 
" style="fill: none; stroke: #333333; stroke-width: 1.5; stroke-linecap: round"/>
   </g>
   <g id="text_6">
    <!-- $L$ -->
    <g style="fill: #333333" transform="translate(282.28 23.260438) scale(0.14 -0.14)">
     <use xlink:href="#DejaVuSans-Oblique-4c" transform="translate(0 0.09375)"/>
    </g>
   </g>
   <g id="text_7">
    <g id="patch_12">
     <path d="M 386.64 330.563594 
L 392.1 330.563594 
Q 394.7 330.563594 394.7 327.963594 
L 394.7 315.382031 
Q 394.7 312.782031 392.1 312.782031 
L 386.64 312.782031 
Q 384.04 312.782031 384.04 315.382031 
L 384.04 327.963594 
Q 384.04 330.563594 386.64 330.563594 
z
" style="fill: #ffffff; opacity: 0.9; stroke: #999999; stroke-linejoin: miter"/>
    </g>
    <!-- $r$ -->
    <g style="fill: #333333" transform="translate(386.64 325.26) scale(0.13 -0.13)">
     <use xlink:href="#DejaVuSans-Oblique-72"/>
    </g>
   </g>
   <g id="text_8">
    <g id="patch_13">
     <path d="M 464.86 239.582 
L 554.04 239.582 
Q 559.24 239.582 559.24 234.382 
L 559.24 192.808 
Q 559.24 187.608 554.04 187.608 
L 464.86 187.608 
Q 459.66 187.608 459.66 192.808 
L 459.66 234.382 
Q 459.66 239.582 464.86 239.582 
z
" style="fill: #f5deb3; opacity: 0.9; stroke: #000000; stroke-linejoin: miter"/>
    </g>
    <!-- $v = \frac{r}{2}(\dot{\phi}_R + \dot{\phi}_L)$ -->
    <g transform="translate(467.33 207.108) scale(0.13 -0.13)">
     <defs>
      <path id="DejaVuSans-3d" d="M 678 2906 
L 4684 2906 
L 4684 2381 
L 678 2381 
L 678 2906 
z
M 678 1631 
L 4684 1631 
L 4684 1100 
L 678 1100 
L 678 1631 
z
" transform="scale(0.015625)"/>
      <path id="DejaVuSans-32" d="M 1228 531 
L 3431 531 
L 3431 0 
L 469 0 
L 469 531 
Q 828 903 1448 1529 
Q 2069 2156 2228 2338 
Q 2531 2678 2651 2914 
Q 2772 3150 2772 3378 
Q 2772 3750 2511 3984 
Q 2250 4219 1831 4219 
Q 1534 4219 1204 4116 
Q 875 4013 500 3803 
L 500 4441 
Q 881 4594 1212 4672 
Q 1544 4750 1819 4750 
Q 2544 4750 2975 4387 
Q 3406 4025 3406 3419 
Q 3406 3131 3298 2873 
Q 3191 2616 2906 2266 
Q 2828 2175 2409 1742 
Q 1991 1309 1228 531 
z
" transform="scale(0.015625)"/>
      <path id="DejaVuSans-28" d="M 1984 4856 
Q 1566 4138 1362 3434 
Q 1159 2731 1159 2009 
Q 1159 1288 1364 580 
Q 1569 -128 1984 -844 
L 1484 -844 
Q 1016 -109 783 600 
Q 550 1309 550 2009 
Q 550 2706 781 3412 
Q 1013 4119 1484 4856 
L 1984 4856 
z
" transform="scale(0.015625)"/>
      <path id="DejaVuSans-307" d="M -1894 4863 
L -1319 4863 
L -1319 4134 
L -1894 4134 
L -1894 4863 
z
M -1600 3584 
L -1600 3584 
z
" transform="scale(0.015625)"/>
      <path id="DejaVuSans-Oblique-3d5" d="M 2991 4863 
L 2738 3572 
Q 3363 3572 3684 3094 
Q 4016 2606 3850 1747 
Q 3681 888 3159 400 
Q 2653 -78 2028 -78 
L 1784 -1331 
L 1213 -1331 
L 1456 -78 
Q 834 -78 509 400 
Q 178 888 347 1747 
Q 513 2606 1034 3094 
Q 1544 3572 2166 3572 
L 2419 4863 
L 2991 4863 
z
M 2128 434 
Q 2481 434 2784 756 
Q 3116 1116 3244 1747 
Q 3369 2372 3169 2738 
Q 2991 3059 2638 3059 
L 2128 434 
z
M 1556 434 
L 2066 3059 
Q 1716 3059 1413 2738 
Q 1072 2372 953 1747 
Q 834 1116 1028 756 
Q 1203 434 1556 434 
z
" transform="scale(0.015625)"/>
      <path id="DejaVuSans-2b" d="M 2944 4013 
L 2944 2272 
L 4684 2272 
L 4684 1741 
L 2944 1741 
L 2944 0 
L 2419 0 
L 2419 1741 
L 678 1741 
L 678 2272 
L 2419 2272 
L 2419 4013 
L 2944 4013 
z
" transform="scale(0.015625)"/>
      <path id="DejaVuSans-29" d="M 513 4856 
L 1013 4856 
Q 1481 4119 1714 3412 
Q 1947 2706 1947 2009 
Q 1947 1309 1714 600 
Q 1481 -109 1013 -844 
L 513 -844 
Q 928 -128 1133 580 
Q 1338 1288 1338 2009 
Q 1338 2731 1133 3434 
Q 928 4138 513 4856 
z
" transform="scale(0.015625)"/>
     </defs>
     <use xlink:href="#DejaVuSans-Oblique-76" transform="translate(0 0.53125)"/>
     <use xlink:href="#DejaVuSans-3d" transform="translate(78.662109 0.53125)"/>
     <use xlink:href="#DejaVuSans-Oblique-72" transform="translate(189.933594 44.328125) scale(0.7)"/>
     <use xlink:href="#DejaVuSans-32" transform="translate(181.933594 -38.875) scale(0.7)"/>
     <use xlink:href="#DejaVuSans-28" transform="translate(238.969727 0.53125)"/>
     <use xlink:href="#DejaVuSans-307" transform="translate(344.068848 33.015625)"/>
     <use xlink:href="#DejaVuSans-Oblique-3d5" transform="translate(277.983398 0.53125)"/>
     <use xlink:href="#DejaVuSans-Oblique-52" transform="translate(344.907227 -15.875) scale(0.7)"/>
     <use xlink:href="#DejaVuSans-2b" transform="translate(415.761719 0.53125)"/>
     <use xlink:href="#DejaVuSans-307" transform="translate(585.118652 33.015625)"/>
     <use xlink:href="#DejaVuSans-Oblique-3d5" transform="translate(519.033203 0.53125)"/>
     <use xlink:href="#DejaVuSans-Oblique-4c" transform="translate(585.957031 -15.875) scale(0.7)"/>
     <use xlink:href="#DejaVuSans-29" transform="translate(627.69043 0.53125)"/>
     <path d="M 181.933594 19.328125 
L 181.933594 25.578125 
L 226.469727 25.578125 
L 226.469727 19.328125 
L 181.933594 19.328125 
z
"/>
    </g>
    <!-- $\omega = \frac{r}{L}(\dot{\phi}_R - \dot{\phi}_L)$ -->
    <g transform="translate(464.86 229.312) scale(0.13 -0.13)">
     <defs>
      <path id="DejaVuSans-2212" d="M 678 2272 
L 4684 2272 
L 4684 1741 
L 678 1741 
L 678 2272 
z
" transform="scale(0.015625)"/>
     </defs>
     <use xlink:href="#DejaVuSans-Oblique-3c9" transform="translate(0 0.53125)"/>
     <use xlink:href="#DejaVuSans-3d" transform="translate(103.222656 0.53125)"/>
     <use xlink:href="#DejaVuSans-Oblique-72" transform="translate(211.494141 44.328125) scale(0.7)"/>
     <use xlink:href="#DejaVuSans-Oblique-4c" transform="translate(206.494141 -37.95625) scale(0.7)"/>
     <use xlink:href="#DejaVuSans-28" transform="translate(257.993164 0.53125)"/>
     <use xlink:href="#DejaVuSans-307" transform="translate(363.092285 33.015625)"/>
     <use xlink:href="#DejaVuSans-Oblique-3d5" transform="translate(297.006836 0.53125)"/>
     <use xlink:href="#DejaVuSans-Oblique-52" transform="translate(363.930664 -15.875) scale(0.7)"/>
     <use xlink:href="#DejaVuSans-2212" transform="translate(434.785156 0.53125)"/>
     <use xlink:href="#DejaVuSans-307" transform="translate(604.14209 33.015625)"/>
     <use xlink:href="#DejaVuSans-Oblique-3d5" transform="translate(538.056641 0.53125)"/>
     <use xlink:href="#DejaVuSans-Oblique-4c" transform="translate(604.980469 -15.875) scale(0.7)"/>
     <use xlink:href="#DejaVuSans-29" transform="translate(646.713867 0.53125)"/>
     <path d="M 206.494141 19.328125 
L 206.494141 25.578125 
L 245.493164 25.578125 
L 245.493164 19.328125 
L 206.494141 19.328125 
z
"/>
    </g>
   </g>
   <g id="patch_14">
    <path d="M 227.61 314.1 
L 227.61 258.3 
L 210.87 258.3 
L 210.87 314.1 
z
" clip-path="url(#p342aff447f)" style="fill: #444444; stroke: #222222; stroke-width: 1.5; stroke-linejoin: miter"/>
   </g>
   <g id="patch_15">
    <path d="M 361.53 314.1 
L 361.53 258.3 
L 344.79 258.3 
L 344.79 314.1 
z
" clip-path="url(#p342aff447f)" style="fill: #444444; stroke: #222222; stroke-width: 1.5; stroke-linejoin: miter"/>
   </g>
   <g id="line2d_1">
    <path d="M 304.056 168.782501 
L 301.340399 167.366295 
L 298.513441 166.187976 
L 295.595919 165.25621 
L 292.609289 164.57785 
L 289.57552 164.157886 
L 286.516924 163.999406 
L 283.455997 164.103577 
L 280.415252 164.469631 
L 277.417053 165.094876 
L 274.483453 165.974715 
L 271.636027 167.102675 
L 268.895719 168.470461 
L 266.282684 170.068012 
L 263.816139 171.883579 
L 261.514227 173.903808 
L 259.393877 176.113841 
L 257.470686 178.497423 
L 255.758797 181.037022 
L 254.270803 183.71396 
L 253.017646 186.508549 
L 252.008544 189.400233 
L 251.250919 192.367746 
L 250.750343 195.38926 
L 250.510498 198.442554 
L 250.533148 201.505169 
L 250.818126 204.554581 
L 251.363337 207.568362 
L 252.16477 210.524344 
L 253.21653 213.400787 
L 254.510883 216.176535 
L 256.038308 218.831173 
L 257.78757 221.345175 
L 259.745806 223.700051 
L 261.89861 225.878481 
L 264.230151 227.864443 
L 266.723279 229.64333 
L 269.359657 231.202059 
L 272.119895 232.529165 
L 274.983692 233.614887 
L 277.929985 234.451241 
L 280.937103 235.032073 
L 283.98293 235.353114 
L 287.045063 235.412 
L 290.10098 235.2083 
L 293.128206 234.743511 
L 296.104476 234.021052 
L 299.007898 233.046237 
L 301.817119 231.826235 
L 304.511477 230.370019 
L 307.071154 228.6883 
L 309.477325 226.793447 
L 311.712292 224.699396 
L 313.759617 222.421549 
L 315.604242 219.97666 
L 317.2326 217.38271 
L 318.632715 214.658778 
L 319.794288 211.824898 
L 320.708777 208.901914 
L 321.369454 205.911324 
" clip-path="url(#p342aff447f)" style="fill: none; stroke: #f39c12; stroke-width: 2.5; stroke-linecap: square"/>
   </g>
   <g id="line2d_2">
    <path d="M 219.24 258.3 
L 219.24 38.448 
" clip-path="url(#p342aff447f)" style="fill: none; stroke-dasharray: 1,1.65; stroke-dashoffset: 0; stroke: #333333; stroke-opacity: 0.6"/>
   </g>
   <g id="line2d_3">
    <path d="M 353.16 258.3 
L 353.16 38.448 
" clip-path="url(#p342aff447f)" style="fill: none; stroke-dasharray: 1,1.65; stroke-dashoffset: 0; stroke: #333333; stroke-opacity: 0.6"/>
   </g>
  </g>
 </g>
 <defs>
  <clipPath id="p342aff447f">
   <rect x="7.2" y="7.2" width="558" height="412.92"/>
  </clipPath>
 </defs>
</svg>
